<svg width="546" height="75" viewBox="0 0 546 75" fill="none" xmlns="http://www.w3.org/2000/svg">
<g clip-path="url(#clip0_15_43)">
<path d="M28.9412 7.86289C29.9402 7.86289 30.75 7.0505 30.75 6.04837C30.75 5.04624 29.9402 4.23386 28.9412 4.23386C27.9422 4.23386 27.1324 5.04624 27.1324 6.04837C27.1324 7.0505 27.9422 7.86289 28.9412 7.86289Z" fill="#CC5829"/>
<path d="M12.0588 7.86289C13.0578 7.86289 13.8676 7.0505 13.8676 6.04837C13.8676 5.04624 13.0578 4.23386 12.0588 4.23386C11.0598 4.23386 10.25 5.04624 10.25 6.04837C10.25 7.0505 11.0598 7.86289 12.0588 7.86289Z" fill="#CC5829"/>
<path d="M28.9412 23.5887C29.9402 23.5887 30.75 22.7763 30.75 21.7742C30.75 20.7721 29.9402 19.9597 28.9412 19.9597C27.9422 19.9597 27.1324 20.7721 27.1324 21.7742C27.1324 22.7763 27.9422 23.5887 28.9412 23.5887Z" fill="#CC5829"/>
<path d="M12.0588 23.5887C13.0578 23.5887 13.8676 22.7763 13.8676 21.7742C13.8676 20.7721 13.0578 19.9597 12.0588 19.9597C11.0598 19.9597 10.25 20.7721 10.25 21.7742C10.25 22.7763 11.0598 23.5887 12.0588 23.5887Z" fill="#CC5829"/>
<path d="M28.9412 0H12.0588C8.7306 0 6.02942 2.70968 6.02942 6.04839V21.7742C6.02942 25.1129 8.7306 27.8226 12.0588 27.8226H28.7362C32.0644 27.8226 34.9706 25.1129 34.9706 21.7742V6.04839C34.9706 2.70968 32.2694 0 28.9412 0ZM28.9412 2.41935C30.9309 2.41935 32.5588 4.05242 32.5588 6.04839C32.5588 8.04436 30.9309 9.67742 28.9412 9.67742C26.9515 9.67742 25.3235 8.04436 25.3235 6.04839C25.3235 4.05242 26.9515 2.41935 28.9412 2.41935ZM12.0588 2.41935C14.0485 2.41935 15.6765 4.05242 15.6765 6.04839C15.6765 8.04436 14.0485 9.67742 12.0588 9.67742C10.0691 9.67742 8.44118 8.04436 8.44118 6.04839C8.44118 4.05242 10.0691 2.41935 12.0588 2.41935ZM12.0588 25.4032C10.0691 25.4032 8.44118 23.7702 8.44118 21.7742C8.44118 19.7782 10.0691 18.1452 12.0588 18.1452C14.0485 18.1452 15.6765 19.7782 15.6765 21.7742C15.6765 23.7702 14.0485 25.4032 12.0588 25.4032ZM28.9412 25.4032C26.9515 25.4032 25.3235 23.7702 25.3235 21.7742C25.3235 19.7782 26.9515 18.1452 28.9412 18.1452C30.9309 18.1452 32.5588 19.7782 32.5588 21.7742C32.5588 23.7702 30.9309 25.4032 28.9412 25.4032Z" fill="#CC5829"/>
<path d="M0 75V33.871C0 32.5403 1.08529 31.4516 2.41176 31.4516H38.5882C39.9147 31.4516 41 32.5403 41 33.871V75H0ZM10.8529 40.5242C10.8529 39.5201 10.045 38.7097 9.04412 38.7097C8.04323 38.7097 7.23529 39.5201 7.23529 40.5242V56.25C7.23529 57.254 8.04323 58.0645 9.04412 58.0645C10.045 58.0645 10.8529 57.254 10.8529 56.25V40.5242ZM18.4862 40.5242C18.4862 39.5201 17.6782 38.7097 16.6774 38.7097C15.6765 38.7097 14.8685 39.5201 14.8685 40.5242V56.25C14.8685 57.254 15.6765 58.0645 16.6774 58.0645C17.6782 58.0645 18.4862 57.254 18.4862 56.25V40.5242ZM26.1315 40.5242C26.1315 39.5201 25.3235 38.7097 24.3226 38.7097C23.3218 38.7097 22.5138 39.5201 22.5138 40.5242V56.25C22.5138 57.254 23.3218 58.0645 24.3226 58.0645C25.3235 58.0645 26.1315 57.254 26.1315 56.25V40.5242ZM33.7647 40.5242C33.7647 39.5201 32.9568 38.7097 31.9559 38.7097C30.955 38.7097 30.1471 39.5201 30.1471 40.5242V56.25C30.1471 57.254 30.955 58.0645 31.9559 58.0645C32.9568 58.0645 33.7647 57.254 33.7647 56.25V40.5242Z" fill="#CC5829"/>
</g>
<g clip-path="url(#clip1_15_43)">
<path d="M154.538 75V36.3281C154.538 35.0391 153.5 33.9844 152.231 33.9844H133.769C132.5 33.9844 131.462 35.0391 131.462 36.3281V75H154.538ZM144.731 45.1172V62.6953C144.731 63.668 143.958 64.4531 143 64.4531C142.042 64.4531 141.269 63.668 141.269 62.6953V45.1172C141.269 44.5078 141.569 43.9805 142.031 43.6641C142.308 43.4766 142.642 43.3594 143 43.3594C143.358 43.3594 143.692 43.4766 143.969 43.6641C144.431 43.9805 144.731 44.5195 144.731 45.1172ZM135.5 5.85938C135.5 4.88672 134.727 4.10156 133.769 4.10156C132.812 4.10156 132.038 4.88672 132.038 5.85938C132.038 6.83203 132.812 7.61719 133.769 7.61719C134.727 7.61719 135.5 6.83203 135.5 5.85938ZM152.231 7.61719C153.188 7.61719 153.962 6.83203 153.962 5.85938C153.962 4.88672 153.188 4.10156 152.231 4.10156C151.273 4.10156 150.5 4.88672 150.5 5.85938C150.5 6.83203 151.273 7.61719 152.231 7.61719ZM144.731 22.2656C144.731 21.293 143.958 20.5078 143 20.5078C142.042 20.5078 141.269 21.293 141.269 22.2656C141.269 23.2383 142.042 24.0234 143 24.0234C143.958 24.0234 144.731 23.2383 144.731 22.2656ZM148.769 5.85938C148.769 7.80469 150.315 9.375 152.231 9.375C154.146 9.375 155.692 7.80469 155.692 5.85938C155.692 3.91406 154.146 2.34375 152.231 2.34375C150.315 2.34375 148.769 3.91406 148.769 5.85938ZM139.538 22.2656C139.538 24.2109 141.085 25.7812 143 25.7812C144.915 25.7812 146.462 24.2109 146.462 22.2656C146.462 20.3203 144.915 18.75 143 18.75C141.085 18.75 139.538 20.3203 139.538 22.2656ZM130.308 5.85938C130.308 7.80469 131.854 9.375 133.769 9.375C135.685 9.375 137.231 7.80469 137.231 5.85938C137.231 3.91406 135.685 2.34375 133.769 2.34375C131.854 2.34375 130.308 3.91406 130.308 5.85938ZM138.385 27.0469C138.385 26.4023 138.131 25.418 137.808 24.8555L128.762 8.76562H128.796C128.312 7.91016 128.012 6.92578 128.012 5.85938C128 2.625 130.585 0 133.769 0H152.231C155.415 0 158 2.625 158 5.85938C158 6.92578 157.7 7.91016 157.204 8.76562H157.238L148.181 24.8672C147.869 25.4297 147.615 26.4141 147.615 27.0586V31.6523H138.385V27.0586V27.0469Z" fill="#FF9933"/>
</g>
<g clip-path="url(#clip2_15_43)">
<path d="M216.871 41.7873H189.129C187.951 41.7873 187 42.7533 187 43.9255V75H219V43.9255C219 42.7424 218.038 41.7873 216.871 41.7873ZM207.263 65.3509H198.726C197.548 65.3509 196.597 64.3958 196.597 63.2127C196.597 62.0297 197.548 61.0745 198.726 61.0745H207.263C208.441 61.0745 209.392 62.0297 209.392 63.2127C209.392 64.3958 208.441 65.3509 207.263 65.3509ZM207.263 55.7127H198.726C197.548 55.7127 196.597 54.7576 196.597 53.5745C196.597 52.3915 197.548 51.4363 198.726 51.4363H207.263C208.441 51.4363 209.392 52.3915 209.392 53.5745C209.392 54.7576 208.441 55.7127 207.263 55.7127Z" fill="#F2C243"/>
<path d="M213.672 13.9255H213.445L215.769 2.57243C216.006 1.41107 215.261 0.282269 214.104 0.0434849C212.948 -0.1953 211.824 0.553615 211.586 1.71498L209.111 13.9255H196.91L194.425 1.71498C194.187 0.553615 193.063 -0.1953 191.906 0.0434849C190.75 0.282269 190.004 1.41107 190.242 2.57243L192.566 13.9255H192.339C189.388 13.9255 187 16.3242 187 19.2873C187 22.2504 189.356 24.5949 192.263 24.6383L191.269 39.6491H214.742L213.748 24.6274C216.59 24.4972 219.011 22.1745 219.011 19.2982C219.011 16.4219 216.622 13.9364 213.672 13.9364V13.9255ZM192.339 22.5001C190.577 22.5001 189.14 21.0565 189.14 19.2873C189.14 17.5182 190.577 16.0746 192.339 16.0746C194.1 16.0746 195.538 17.5182 195.538 19.2873C195.538 21.0565 194.1 22.5001 192.339 22.5001ZM206.204 35.351H199.806C198.034 35.351 196.608 33.9075 196.608 32.1383C196.608 30.3691 198.045 28.9255 199.806 28.9255H206.204C207.977 28.9255 209.403 30.3691 209.403 32.1383C209.403 33.9075 207.966 35.351 206.204 35.351ZM213.672 22.5001C211.911 22.5001 210.473 21.0565 210.473 19.2873C210.473 17.5182 211.911 16.0746 213.672 16.0746C215.434 16.0746 216.871 17.5182 216.871 19.2873C216.871 21.0565 215.434 22.5001 213.672 22.5001Z" fill="#F2C243"/>
<path d="M192.339 20.8936C193.222 20.8936 193.938 20.1744 193.938 19.2873C193.938 18.4001 193.222 17.6809 192.339 17.6809C191.455 17.6809 190.739 18.4001 190.739 19.2873C190.739 20.1744 191.455 20.8936 192.339 20.8936Z" fill="#F2C243"/>
<path d="M213.672 20.8936C214.555 20.8936 215.272 20.1744 215.272 19.2873C215.272 18.4001 214.555 17.6809 213.672 17.6809C212.789 17.6809 212.073 18.4001 212.073 19.2873C212.073 20.1744 212.789 20.8936 213.672 20.8936Z" fill="#F2C243"/>
<path d="M206.204 30.5318H199.806C198.92 30.5318 198.207 31.2482 198.207 32.1382C198.207 33.0282 198.92 33.7446 199.806 33.7446H206.204C207.091 33.7446 207.804 33.0282 207.804 32.1382C207.804 31.2482 207.091 30.5318 206.204 30.5318Z" fill="#F2C243"/>
</g>
<g clip-path="url(#clip3_15_43)">
<path d="M86.1111 34.8214C86.1111 35.7107 85.3915 36.4286 84.5 36.4286C83.6085 36.4286 82.8889 35.7107 82.8889 34.8214C82.8889 33.9321 83.6085 33.2143 84.5 33.2143C85.3915 33.2143 86.1111 33.9321 86.1111 34.8214ZM84.5 20.3571C83.6085 20.3571 82.8889 21.075 82.8889 21.9643C82.8889 22.8536 83.6085 23.5714 84.5 23.5714C85.3915 23.5714 86.1111 22.8536 86.1111 21.9643C86.1111 21.075 85.3915 20.3571 84.5 20.3571ZM89.8704 9.10714V34.8214C89.8704 37.7786 87.4644 40.1786 84.5 40.1786C81.5356 40.1786 79.1296 37.6071 79.1296 34.6393V9.10714C79.1296 6.15 81.5356 3.75 84.5 3.75C87.4644 3.75 89.8704 6.15 89.8704 9.10714ZM87.7222 34.8214C87.7222 33.0536 86.2722 31.6071 84.5 31.6071C82.7278 31.6071 81.2778 33.0536 81.2778 34.8214C81.2778 36.5893 82.7278 38.0357 84.5 38.0357C86.2722 38.0357 87.7222 36.5893 87.7222 34.8214ZM87.7222 21.9643C87.7222 20.1964 86.2722 18.75 84.5 18.75C82.7278 18.75 81.2778 20.1964 81.2778 21.9643C81.2778 23.7321 82.7278 25.1786 84.5 25.1786C86.2722 25.1786 87.7222 23.7321 87.7222 21.9643ZM87.7222 9.10714C87.7222 7.33929 86.2722 5.89286 84.5 5.89286C82.7278 5.89286 81.2778 7.33929 81.2778 9.10714C81.2778 10.875 82.7278 12.3214 84.5 12.3214C86.2722 12.3214 87.7222 10.875 87.7222 9.10714ZM99 24.6429V75H70V24.6429C70 23.4643 70.9667 22.5 72.1481 22.5H75.3704V9.10714C75.3704 4.08214 79.4626 0 84.5 0C89.5374 0 93.6296 4.08214 93.6296 9.10714V22.5H96.8519C98.0333 22.5 99 23.4643 99 24.6429ZM78.8611 69.1071C78.8611 68.2179 78.1415 67.5 77.25 67.5C76.3585 67.5 75.6389 68.2179 75.6389 69.1071C75.6389 69.9964 76.3585 70.7143 77.25 70.7143C78.1415 70.7143 78.8611 69.9964 78.8611 69.1071ZM86.1111 69.1071C86.1111 68.2179 85.3915 67.5 84.5 67.5C83.6085 67.5 82.8889 68.2179 82.8889 69.1071C82.8889 69.9964 83.6085 70.7143 84.5 70.7143C85.3915 70.7143 86.1111 69.9964 86.1111 69.1071ZM91.4815 34.8214V9.10714C91.4815 5.27143 88.3452 2.14286 84.5 2.14286C80.6548 2.14286 77.5185 5.27143 77.5185 9.10714V34.8214C77.6152 38.6143 80.773 41.7857 84.5 41.7857C88.227 41.7857 91.4815 38.6571 91.4815 34.8214ZM93.3611 69.1071C93.3611 68.2179 92.6415 67.5 91.75 67.5C90.8585 67.5 90.1389 68.2179 90.1389 69.1071C90.1389 69.9964 90.8585 70.7143 91.75 70.7143C92.6415 70.7143 93.3611 69.9964 93.3611 69.1071ZM84.5 7.5C83.6085 7.5 82.8889 8.21786 82.8889 9.10714C82.8889 9.99643 83.6085 10.7143 84.5 10.7143C85.3915 10.7143 86.1111 9.99643 86.1111 9.10714C86.1111 8.21786 85.3915 7.5 84.5 7.5Z" fill="#CC7A99"/>
</g>
<g clip-path="url(#clip4_15_43)">
<path d="M347 8.3907C348.059 8.3907 348.917 7.52378 348.917 6.45438C348.917 5.38498 348.059 4.51807 347 4.51807C345.941 4.51807 345.083 5.38498 345.083 6.45438C345.083 7.52378 345.941 8.3907 347 8.3907Z" fill="#66CC66"/>
<path d="M363.611 25.1721C364.67 25.1721 365.528 24.3052 365.528 23.2358C365.528 22.1664 364.67 21.2995 363.611 21.2995C362.553 21.2995 361.694 22.1664 361.694 23.2358C361.694 24.3052 362.553 25.1721 363.611 25.1721Z" fill="#66CC66"/>
<path d="M330.389 25.1721C331.447 25.1721 332.306 24.3052 332.306 23.2358C332.306 22.1664 331.447 21.2995 330.389 21.2995C329.33 21.2995 328.472 22.1664 328.472 23.2358C328.472 24.3052 329.33 25.1721 330.389 25.1721Z" fill="#66CC66"/>
<path d="M330.389 38.7263V75H363.611V38.7263H330.389ZM351.472 67.7711H342.528C341.467 67.7711 340.611 66.9062 340.611 65.8348C340.611 64.7633 341.467 63.8984 342.528 63.8984H351.472C352.533 63.8984 353.389 64.7633 353.389 65.8348C353.389 66.9062 352.533 67.7711 351.472 67.7711ZM351.472 58.7349H342.528C341.467 58.7349 340.611 57.87 340.611 56.7986C340.611 55.7272 341.467 54.8623 342.528 54.8623H351.472C352.533 54.8623 353.389 55.7272 353.389 56.7986C353.389 57.87 352.533 58.7349 351.472 58.7349ZM352.111 49.5826V49.6988H342.528C341.467 49.6988 340.611 48.8339 340.611 47.7625C340.611 46.691 341.467 45.8261 342.528 45.8261H352.111V45.9423C352.852 46.2134 353.389 46.9234 353.389 47.7625C353.389 48.6015 352.852 49.3115 352.111 49.5826Z" fill="#66CC66"/>
<path d="M325.866 27.7926C327.105 29.0577 328.753 29.6902 330.376 29.6902V36.1446H363.598V29.6902C367.125 29.6902 369.987 26.7986 369.987 23.2358C369.987 21.4415 369.259 19.8279 368.096 18.6532H368.122L363.56 14.0189L367.968 9.56541C368.965 8.55852 368.965 6.91911 367.968 5.91222C366.972 4.90534 365.349 4.90534 364.352 5.91222L359.944 10.3657L351.511 1.84596H351.485C350.335 0.709983 348.738 -0.0129089 346.987 -0.0129089C345.237 -0.0129089 343.639 0.697074 342.489 1.85886L342.464 1.83305L334.031 10.3528L329.622 5.89931C328.626 4.89243 327.003 4.89243 326.006 5.89931C325.009 6.9062 325.009 8.54561 326.006 9.5525L330.414 14.006L325.853 18.6145L325.878 18.6403C325.878 18.6403 325.878 18.6403 325.866 18.6532C323.374 21.1704 323.374 25.2625 325.866 27.7797V27.7926ZM363.611 19.3632C365.719 19.3632 367.444 21.1059 367.444 23.2358C367.444 25.3658 365.719 27.1084 363.611 27.1084C361.503 27.1084 359.778 25.3658 359.778 23.2358C359.778 21.1059 361.503 19.3632 363.611 19.3632ZM347 2.58176C349.108 2.58176 350.833 4.32444 350.833 6.45439C350.833 8.58434 349.108 10.327 347 10.327C344.892 10.327 343.167 8.58434 343.167 6.45439C343.167 4.32444 344.892 2.58176 347 2.58176ZM330.389 19.3632C332.497 19.3632 334.222 21.1059 334.222 23.2358C334.222 25.3658 332.497 27.1084 330.389 27.1084C328.281 27.1084 326.556 25.3658 326.556 23.2358C326.556 21.1059 328.281 19.3632 330.389 19.3632Z" fill="#66CC66"/>
</g>
<g clip-path="url(#clip5_15_43)">
<path d="M289.778 42.2489H253.222C251.786 42.2489 250.611 43.4279 250.611 44.869V75H292.389V44.869C292.389 43.4279 291.214 42.2489 289.778 42.2489ZM261.056 60.5895C259.619 60.5895 258.444 59.4105 258.444 57.9694C258.444 56.5284 259.619 55.3493 261.056 55.3493C262.492 55.3493 263.667 56.5284 263.667 57.9694C263.667 59.4105 262.492 60.5895 261.056 60.5895ZM271.5 60.5895C270.064 60.5895 268.889 59.4105 268.889 57.9694C268.889 56.5284 270.064 55.3493 271.5 55.3493C272.936 55.3493 274.111 56.5284 274.111 57.9694C274.111 59.4105 272.936 60.5895 271.5 60.5895ZM281.944 60.5895C280.508 60.5895 279.333 59.4105 279.333 57.9694C279.333 56.5284 280.508 55.3493 281.944 55.3493C283.381 55.3493 284.556 56.5284 284.556 57.9694C284.556 59.4105 283.381 60.5895 281.944 60.5895Z" fill="#CCCC33"/>
<path d="M288.472 14.083C289.556 14.083 290.431 14.9607 290.431 16.048C290.431 17.1354 289.556 18.0131 288.472 18.0131C287.389 18.0131 286.514 17.1223 286.514 16.048C286.514 14.9738 287.389 14.083 288.472 14.083Z" fill="#CCCC33"/>
<path d="M271.5 31.1135C270.416 31.1135 269.542 31.9913 269.542 33.0786C269.542 34.1659 270.416 35.0437 271.5 35.0437C272.584 35.0437 273.458 34.1528 273.458 33.0786C273.458 32.0044 272.584 31.1135 271.5 31.1135Z" fill="#CCCC33"/>
<path d="M271.5 31.1135C272.584 31.1135 273.458 31.9913 273.458 33.0786C273.458 34.1659 272.584 35.0437 271.5 35.0437C270.416 35.0437 269.542 34.1528 269.542 33.0786C269.542 32.0044 270.416 31.1135 271.5 31.1135Z" fill="#CCCC33"/>
<path d="M254.528 14.083C255.611 14.083 256.486 14.9607 256.486 16.048C256.486 17.1354 255.611 18.0131 254.528 18.0131C253.444 18.0131 252.569 17.1223 252.569 16.048C252.569 14.9738 253.444 14.083 254.528 14.083Z" fill="#CCCC33"/>
<path d="M293.081 20.6725C295.64 18.1179 295.64 13.9651 293.081 11.4105C291.814 10.1266 290.143 9.49782 288.472 9.49782H283.315V2.29258C283.315 1.02183 282.297 0 281.031 0C279.764 0 278.746 1.02183 278.746 2.29258V9.49782H264.071V2.29258C264.071 1.02183 263.053 0 261.787 0C260.52 0 259.502 1.02183 259.502 2.29258V9.49782H254.528C250.924 9.49782 248 12.4323 248 16.048C248 17.8559 248.731 19.5065 249.932 20.6856L249.906 20.7118L257.465 28.2969V39.6288H271.448C271.448 39.6288 271.487 39.6288 271.5 39.6288C271.513 39.6288 271.539 39.6288 271.552 39.6288H285.535V28.2969L293.094 20.7118L293.068 20.6856C293.068 20.6856 293.068 20.6856 293.068 20.6725H293.081ZM254.528 19.9782C252.361 19.9782 250.611 18.2096 250.611 16.048C250.611 13.8865 252.361 12.1179 254.528 12.1179C256.695 12.1179 258.444 13.8734 258.444 16.048C258.444 18.2227 256.682 19.9782 254.528 19.9782ZM271.5 37.0087C269.333 37.0087 267.583 35.2402 267.583 33.0786C267.583 30.917 269.333 29.1485 271.5 29.1485C273.667 29.1485 275.417 30.9039 275.417 33.0786C275.417 35.2533 273.654 37.0087 271.5 37.0087ZM288.472 19.9782C286.305 19.9782 284.556 18.2096 284.556 16.048C284.556 13.8865 286.305 12.1179 288.472 12.1179C290.639 12.1179 292.389 13.8734 292.389 16.048C292.389 18.2227 290.626 19.9782 288.472 19.9782Z" fill="#CCCC33"/>
</g>
<g clip-path="url(#clip6_15_43)">
<path d="M405.176 7.99181C406.2 7.99181 407.029 7.1661 407.029 6.14755C407.029 5.12899 406.2 4.30328 405.176 4.30328C404.153 4.30328 403.324 5.12899 403.324 6.14755C403.324 7.1661 404.153 7.99181 405.176 7.99181Z" fill="#8179CC"/>
<path d="M434.824 7.99181C435.847 7.99181 436.676 7.1661 436.676 6.14755C436.676 5.12899 435.847 4.30328 434.824 4.30328C433.8 4.30328 432.971 5.12899 432.971 6.14755C432.971 7.1661 433.8 7.99181 434.824 7.99181Z" fill="#8179CC"/>
<path d="M400.47 10.1189L406.498 17.2131H433.588V17.1148L439.542 10.1189H439.518C440.432 9.02459 441 7.65984 441 6.14754C441 2.7541 438.233 0 434.824 0C432.934 0 431.266 0.860656 430.129 2.18852H430.105L427.77 4.91803H412.218L409.883 2.17623H409.858C408.722 0.860656 407.054 0 405.164 0C401.767 0 399 2.7541 399 6.14754C399 7.65984 399.568 9.02459 400.482 10.1066H400.458L400.47 10.1189ZM434.824 2.45902C436.862 2.45902 438.529 4.11885 438.529 6.14754C438.529 8.17623 436.862 9.83607 434.824 9.83607C432.785 9.83607 431.118 8.17623 431.118 6.14754C431.118 4.11885 432.785 2.45902 434.824 2.45902ZM405.176 2.45902C407.215 2.45902 408.882 4.11885 408.882 6.14754C408.882 8.17623 407.215 9.83607 405.176 9.83607C403.138 9.83607 401.471 8.17623 401.471 6.14754C401.471 4.11885 403.138 2.45902 405.176 2.45902Z" fill="#8179CC"/>
<path d="M406.412 19.6721L399.469 75H440.543L433.601 19.6721H406.412ZM415.059 65.7787C415.059 66.7992 414.231 67.6229 413.206 67.6229C412.181 67.6229 411.353 66.7992 411.353 65.7787V57.1721C411.353 56.1516 412.181 55.3279 413.206 55.3279C414.231 55.3279 415.059 56.1516 415.059 57.1721V65.7787ZM421.853 65.7787C421.853 66.7992 421.025 67.6229 420 67.6229C418.975 67.6229 418.147 66.7992 418.147 65.7787V57.1721C418.147 56.1516 418.975 55.3279 420 55.3279C421.025 55.3279 421.853 56.1516 421.853 57.1721V65.7787ZM428.647 65.7787C428.647 66.7992 427.819 67.6229 426.794 67.6229C425.769 67.6229 424.941 66.7992 424.941 65.7787V57.1721C424.941 56.1516 425.769 55.3279 426.794 55.3279C427.819 55.3279 428.647 56.1516 428.647 57.1721V65.7787Z" fill="#8179CC"/>
</g>
<g clip-path="url(#clip7_15_43)">
<path d="M536.653 19.1089C538.069 19.1089 539.217 17.9611 539.217 16.5453C539.217 15.1294 538.069 13.9817 536.653 13.9817C535.237 13.9817 534.09 15.1294 534.09 16.5453C534.09 17.9611 535.237 19.1089 536.653 19.1089Z" fill="#19AFFF"/>
<path d="M478.545 19.1089C479.961 19.1089 481.109 17.9611 481.109 16.5453C481.109 15.1294 479.961 13.9817 478.545 13.9817C477.129 13.9817 475.982 15.1294 475.982 16.5453C475.982 17.9611 477.129 19.1089 478.545 19.1089Z" fill="#19AFFF"/>
<path d="M536.653 8H478.545C473.828 8 470 11.8283 470 16.5453C470 21.2623 473.828 25.0906 478.545 25.0906H481.963V33.6358H533.235V25.0906H536.363C541.08 25.0906 545.198 21.2623 545.198 16.5453C545.198 11.8283 541.37 8 536.653 8ZM478.545 21.6725C475.725 21.6725 473.418 19.3652 473.418 16.5453C473.418 13.7253 475.725 11.4181 478.545 11.4181C481.365 11.4181 483.672 13.7253 483.672 16.5453C483.672 19.3652 481.365 21.6725 478.545 21.6725ZM536.653 21.6725C533.833 21.6725 531.526 19.3652 531.526 16.5453C531.526 13.7253 533.833 11.4181 536.653 11.4181C539.473 11.4181 541.78 13.7253 541.78 16.5453C541.78 19.3652 539.473 21.6725 536.653 21.6725Z" fill="#19AFFF"/>
<path d="M540.071 37.054H475.127C473.247 37.054 471.709 38.5921 471.709 40.4721V74.6532H543.489V40.4721C543.489 38.5921 541.951 37.054 540.071 37.054ZM490.509 61.8353C490.509 63.2538 489.364 64.3989 487.945 64.3989C486.527 64.3989 485.381 63.2538 485.381 61.8353V49.8719C485.381 48.4534 486.527 47.3083 487.945 47.3083C489.364 47.3083 490.509 48.4534 490.509 49.8719V61.8353ZM500.336 61.8353C500.336 63.2538 499.191 64.3989 497.772 64.3989C496.354 64.3989 495.209 63.2538 495.209 61.8353V49.8719C495.209 48.4534 496.354 47.3083 497.772 47.3083C499.191 47.3083 500.336 48.4534 500.336 49.8719V61.8353ZM510.163 61.8353C510.163 63.2538 509.018 64.3989 507.599 64.3989C506.181 64.3989 505.036 63.2538 505.036 61.8353V49.8719C505.036 48.4534 506.181 47.3083 507.599 47.3083C509.018 47.3083 510.163 48.4534 510.163 49.8719V61.8353ZM519.99 61.8353C519.99 63.2538 518.845 64.3989 517.426 64.3989C516.008 64.3989 514.863 63.2538 514.863 61.8353V49.8719C514.863 48.4534 516.008 47.3083 517.426 47.3083C518.845 47.3083 519.99 48.4534 519.99 49.8719V61.8353ZM529.817 61.8353C529.817 63.2538 528.672 64.3989 527.253 64.3989C525.835 64.3989 524.69 63.2538 524.69 61.8353V49.8719C524.69 48.4534 525.835 47.3083 527.253 47.3083C528.672 47.3083 529.817 48.4534 529.817 49.8719V61.8353Z" fill="#19AFFF"/>
</g>
<defs>
<clipPath id="clip0_15_43">
<rect width="41" height="75" fill="white"/>
</clipPath>
<clipPath id="clip1_15_43">
<rect width="30" height="75" fill="white" transform="translate(128)"/>
</clipPath>
<clipPath id="clip2_15_43">
<rect width="32" height="75" fill="white" transform="translate(187)"/>
</clipPath>
<clipPath id="clip3_15_43">
<rect width="29" height="75" fill="white" transform="translate(70)"/>
</clipPath>
<clipPath id="clip4_15_43">
<rect width="46" height="75" fill="white" transform="translate(324)"/>
</clipPath>
<clipPath id="clip5_15_43">
<rect width="47" height="75" fill="white" transform="translate(248)"/>
</clipPath>
<clipPath id="clip6_15_43">
<rect width="42" height="75" fill="white" transform="translate(399)"/>
</clipPath>
<clipPath id="clip7_15_43">
<rect width="75.1985" height="66.6532" fill="white" transform="translate(470 8)"/>
</clipPath>
</defs>
</svg>
