<svg width="207" height="93" viewBox="0 0 207 93" fill="none" xmlns="http://www.w3.org/2000/svg">
<g filter="url(#filter0_d_113_97)">
<rect x="4" width="199" height="85" rx="42.5" fill="url(#paint0_linear_113_97)"/>
</g>
<g clip-path="url(#clip0_113_97)">
<path d="M55.7775 55.6625C56.1782 56.0309 56.6997 56.2566 57.2327 56.3473C58.1645 56.5055 59.1653 56.2354 59.7232 55.429C60.2486 54.6709 60.3847 53.6735 60.3847 52.7707V45.9088C60.8123 45.575 61.0979 45.0966 61.5255 44.7609L68.0941 54.285C68.3453 54.6979 68.5734 55.0201 68.7556 55.294C68.9377 55.5467 69.1198 55.7763 69.325 55.9364C69.5071 56.0965 69.7353 56.2123 69.9865 56.2798C71.5318 56.7042 73.3666 55.948 73.5449 54.2137C73.5449 53.9841 73.5219 53.7082 73.4529 53.4343C73.3839 53.1353 73.2708 52.9057 73.1116 52.6993C70.5444 48.9626 67.8928 45.2837 65.2661 41.5913L71.9958 34.5905C72.9544 33.6723 72.918 32.1019 71.9498 31.2165C71.0697 30.4525 69.6337 30.2982 68.6655 30.9869C68.2782 31.2859 67.912 31.6062 67.5707 31.9746L60.4077 39.641H60.3617V22.3154C60.3617 21.7348 60.1642 21.1811 59.7808 20.7451C58.686 19.5047 56.3853 19.4237 55.4803 20.938C55.2982 21.2814 55.1601 21.673 55.093 22.1322C55.024 22.5682 55.001 23.0504 55.001 23.5559V53.851C55.001 54.586 55.2521 55.2052 55.7756 55.6644L55.7775 55.6625Z" fill="white"/>
<path d="M82.0501 30.6744C81.0915 30.3619 79.9813 30.5818 79.2489 31.2879C78.7236 31.7702 78.4744 32.3663 78.4744 33.0318V53.9166C78.4744 54.6516 78.7255 55.2709 79.2489 55.73C80.3015 56.6965 82.0194 56.6579 83.0816 55.73C83.6069 55.2477 83.8562 54.6516 83.8562 53.9166V33.0318C83.8562 31.938 83.0643 31.0024 82.0501 30.6725V30.6744Z" fill="white"/>
<path d="M79.4542 25.705C81.4098 26.9358 84.2224 25.5815 84.2876 23.2106C84.2876 22.4081 83.9905 21.7194 83.375 21.1214C82.3857 20.1993 80.825 19.9793 79.6248 20.5986C78.6604 21.0963 78.043 22.1033 78.0584 23.1952C78.0737 24.2003 78.6048 25.1687 79.4542 25.705Z" fill="white"/>
<path d="M90.4249 45.7468C90.4249 47.4444 90.538 48.9607 90.8122 50.2687C91.0634 51.5998 91.5427 52.6782 92.2482 53.5501C92.9327 54.4221 93.8683 55.0645 95.0532 55.5236C96.8919 56.2123 99.0239 56.3146 100.96 56.1197C101.965 56.0136 102.947 55.4754 103.25 54.451C103.514 53.5579 103.37 52.3271 102.488 51.8293C100.872 50.9188 98.9587 51.8467 97.3329 51.0712C96.8996 50.8416 96.5583 50.4982 96.3071 50.0391C96.056 49.5568 95.8968 48.9376 95.8278 48.1794C95.7588 47.4213 95.7358 46.4818 95.7358 45.3803V36.6123H99.3671C99.8177 36.6123 100.295 36.649 100.738 36.5448C101.58 36.3442 102.291 35.696 102.579 34.8761C102.883 34.0061 102.64 33.0762 101.963 32.4589C101.461 31.9766 100.868 31.7471 100.161 31.7471H95.7358V25.5275C95.7358 24.862 95.4846 24.289 95.0283 23.7836C94.0831 22.738 92.0182 22.7477 91.0595 23.7605C90.5802 24.2427 90.3521 24.8157 90.3521 25.5275H90.4211V45.7468H90.4249Z" fill="white"/>
<path d="M159.018 23.3938V27.5472C159.018 27.8906 158.925 28.1896 158.697 28.4192C158.678 28.4404 158.657 28.4597 158.636 28.479C158.738 28.4018 158.832 28.3092 158.908 28.1973C159.096 27.9215 159.104 27.6167 159.104 27.2945V23.3475C159.085 23.1276 159.058 22.9154 159.025 22.707C159.041 22.9289 159.041 23.1565 159.018 23.3938Z" fill="white"/>
<path d="M53.1911 38.9543V39.5253C53.1911 40.0519 53.195 40.5767 53.1911 41.1033C53.1854 41.875 52.6696 42.4421 51.8874 42.4421C51.4694 42.4421 51.0495 42.4421 50.6316 42.4421C50.2193 42.4421 49.8378 42.2936 49.5847 42.0197C49.8359 42.3245 50.2385 42.4865 50.6737 42.4884C51.0898 42.4884 51.5078 42.4884 51.9238 42.4884C52.7099 42.4884 53.218 41.9136 53.2237 41.1438C53.2276 40.6152 53.2237 40.0867 53.2237 39.56V38.9774C53.2237 38.4874 53.0032 38.1016 52.6505 37.8778C52.9841 38.1035 53.193 38.4778 53.193 38.9543H53.1911Z" fill="white"/>
<path d="M113.61 21.3741C113.175 21.9471 112.947 22.5914 112.947 23.3476V60.1362H112.924V61.6043C112.924 63.68 111.72 65.6902 109.789 66.4927C109.126 66.7917 108.394 66.9287 107.569 66.9287H47.3549C46.5535 66.9055 45.8211 66.7686 45.1807 66.4927C44.5173 66.2168 43.9671 65.8271 43.4878 65.3449C43.4475 65.3043 43.4072 65.2619 43.3689 65.2195C43.4283 65.2851 43.4878 65.3506 43.551 65.4143C44.0304 65.8966 44.5768 66.2863 45.2382 66.5621C45.8767 66.838 46.6072 66.975 47.4048 66.9981H107.577C108.397 66.9981 109.151 66.8612 109.789 66.5621C110.451 66.2863 110.999 65.8966 111.477 65.4143C111.933 64.932 112.297 64.3591 112.548 63.7167C112.799 63.0743 112.936 62.3856 112.936 61.6737V60.2056H112.959V23.3476C112.959 22.5895 113.187 21.9471 113.62 21.3741C113.883 21.0365 114.251 20.8012 114.707 20.6642C114.243 20.7934 113.877 21.0288 113.609 21.3741H113.61Z" fill="white"/>
<path d="M47.447 41.2943V41.3406C46.5095 41.3406 45.8001 41.6396 45.3649 42.1894C44.9296 42.7624 44.7015 43.4067 44.7015 44.1629V60.1593H44.6785V61.6274C44.6785 62.3855 44.9066 63.0511 45.3418 63.6009C45.3572 63.6202 45.3744 63.6394 45.3917 63.6587C44.9641 63.0877 44.7379 62.4472 44.7379 61.6949V60.2268H44.7609V44.2073C44.7609 43.4646 44.9967 42.718 45.5163 42.1778C46.034 41.6396 46.7626 41.385 47.4988 41.385V41.3387H49.2857C49.2857 41.3232 49.2819 41.3078 49.2799 41.2924H47.4489L47.447 41.2943Z" fill="white"/>
<path d="M110.271 54.2388C110.271 54.2214 110.271 54.206 110.271 54.1906C110.271 54.2253 110.271 54.2619 110.271 54.3063V61.6968C110.271 61.7219 110.271 61.745 110.271 61.7701C110.271 61.7238 110.272 61.6756 110.272 61.6274V54.2368L110.271 54.2388Z" fill="white"/>
<path d="M110.292 30.7612V23.3707C110.292 22.6589 110.43 21.9702 110.681 21.3278C110.955 20.6854 111.298 20.1105 111.779 19.6301C112.261 19.1498 112.809 18.7581 113.472 18.4823C114.023 18.2527 114.64 18.1157 115.303 18.0694V18.0463H153.981C154.713 18.0694 155.353 18.2064 155.95 18.4591C156.559 18.7215 157.104 19.0977 157.562 19.5607C157.092 19.0726 156.525 18.6791 155.886 18.4128C155.294 18.1601 154.633 18.0231 153.925 18H115.286V18.0231C114.625 18.0694 114.009 18.2064 113.461 18.436C112.799 18.7119 112.23 19.1015 111.774 19.5838C110.947 20.4153 110.455 21.5496 110.326 22.7109C110.255 23.3437 110.292 23.9938 110.292 24.6304V53.9706C110.292 53.9706 110.292 53.9668 110.292 53.9648V30.7612Z" fill="white"/>
<path d="M155.768 21.3972C156.203 21.949 156.408 22.6145 156.408 23.3707V27.5473C156.408 27.8907 156.523 28.1897 156.728 28.4193C157.167 28.8611 158.161 28.9112 158.636 28.4791C157.844 29.0713 156.412 28.6373 156.412 27.5242V23.3476C156.412 22.5894 156.207 21.947 155.774 21.3741C155.34 20.8224 154.679 20.5484 153.766 20.5253H115.561C115.25 20.5426 114.966 20.5889 114.709 20.6642C114.957 20.5947 115.231 20.5561 115.534 20.5484H153.776C154.69 20.5716 155.356 20.8474 155.768 21.3972Z" fill="white"/>
<path d="M42.0691 61.6755V54.285C42.0691 54.1924 42.0691 54.1249 42.0921 54.0323V44.186C42.0921 43.4742 42.2282 42.7855 42.4794 42.1431C42.7306 41.5007 43.0948 40.9258 43.5742 40.4454C44.0305 39.9631 44.5999 39.5735 45.2614 39.2976C45.8768 39.0217 46.5383 38.8848 47.2918 38.8616H49.3222C49.3682 38.1227 49.8993 37.6675 50.6221 37.6675C51.0496 37.6675 51.4772 37.6617 51.9048 37.6675C52.1866 37.6713 52.4416 37.7446 52.6506 37.8777C52.4339 37.7311 52.1655 37.6482 51.8664 37.6462C51.4389 37.6424 51.0113 37.6462 50.5837 37.6462C49.859 37.6462 49.326 38.0977 49.28 38.8404H47.2438C46.4884 38.8635 45.8251 39.0005 45.2077 39.2532C44.5443 39.5291 43.994 39.9188 43.5147 40.4011C43.0335 40.8833 42.6903 41.4563 42.4161 42.0987C42.165 42.7411 42.0269 43.4298 42.0269 44.1416V53.9648C42.0039 54.0342 42.0039 54.1249 42.0039 54.2175V61.608C42.0039 62.3199 42.142 62.9854 42.3931 63.651C42.6232 64.2394 42.951 64.7679 43.3728 65.2232C42.9817 64.7834 42.6788 64.2779 42.4602 63.7185C42.2091 63.0761 42.0729 62.3874 42.0729 61.6755H42.0691Z" fill="white"/>
<path d="M159.025 22.7071C158.991 22.219 158.872 21.7618 158.697 21.3046C158.438 20.6448 158.051 20.0526 157.564 19.5607C158.028 20.043 158.398 20.6198 158.647 21.2583C158.826 21.7309 158.945 22.2017 159.025 22.7071Z" fill="white"/>
<path d="M47.4738 64.5211H107.462C108.271 64.5211 109.111 64.3591 109.628 63.6723C110.048 63.1167 110.253 62.4974 110.265 61.7721C110.24 62.4685 110.035 63.0665 109.626 63.6028C109.095 64.2742 108.263 64.4517 107.452 64.4517H47.4239C46.519 64.4517 45.8479 64.1951 45.3916 63.6607C45.3935 63.6646 45.3954 63.6665 45.3993 63.6704C45.8326 64.2433 46.5401 64.5192 47.4757 64.5192L47.4738 64.5211Z" fill="white"/>
<path d="M110.292 53.9688C110.274 54.044 110.271 54.1057 110.271 54.1906C110.272 54.1366 110.278 54.0884 110.292 54.0324V53.9688Z" fill="white"/>
<path d="M49.2837 41.3406C49.3125 41.6164 49.4217 41.8441 49.5828 42.0196C49.4352 41.8402 49.3393 41.6145 49.322 41.3406H49.2837Z" fill="white"/>
<path d="M153.766 20.5252C154.679 20.5484 155.34 20.8242 155.773 21.374C156.207 21.947 156.412 22.5913 156.412 23.3475V27.5241C156.412 28.6372 157.844 29.0713 158.636 28.479C158.657 28.4597 158.678 28.4404 158.697 28.4192C158.925 28.1896 159.017 27.8906 159.017 27.5472V23.3938C159.039 23.1565 159.04 22.9289 159.025 22.7071C158.947 22.2016 158.826 21.7309 158.647 21.2583C158.398 20.6197 158.028 20.0429 157.564 19.5606C157.106 19.0976 156.561 18.7215 155.952 18.4591C155.357 18.2064 154.715 18.0694 153.983 18.0463H115.305V18.0694C114.642 18.1157 114.025 18.2527 113.474 18.4822C112.811 18.7581 112.261 19.1478 111.781 19.6301C111.302 20.1124 110.957 20.6853 110.683 21.3277C110.432 21.9701 110.294 22.6588 110.294 23.3707V53.9629C110.294 53.9629 110.294 53.9667 110.294 53.9687V54.0323C110.28 54.0883 110.274 54.1365 110.272 54.1905C110.272 54.2059 110.272 54.2214 110.272 54.2387V61.6293C110.272 61.6775 110.272 61.7238 110.271 61.772C110.257 62.4974 110.052 63.1166 109.634 63.6722C109.116 64.359 108.277 64.521 107.468 64.521H47.4738C46.5382 64.521 45.8307 64.2452 45.3974 63.6722C45.3955 63.6684 45.3916 63.6664 45.3897 63.6626C45.3725 63.6433 45.3552 63.624 45.3399 63.6047C44.9046 63.053 44.6765 62.3874 44.6765 61.6312V60.1631H44.6995V44.1667C44.6995 43.4086 44.9277 42.7662 45.3629 42.1932C45.7981 41.6415 46.5075 41.3444 47.445 41.3444V41.2981H49.2761C49.2761 41.3135 49.2799 41.329 49.2818 41.3444H49.3201C49.3374 41.6164 49.4333 41.8441 49.5809 42.0235C49.834 42.2974 50.2155 42.4459 50.6277 42.4459C51.0457 42.4459 51.4656 42.4459 51.8836 42.4459C52.6658 42.4459 53.1816 41.8769 53.1873 41.1071C53.1911 40.5805 53.1873 40.0558 53.1873 39.5291V38.9581C53.1873 38.4835 52.9783 38.1073 52.6447 37.8816C52.4357 37.7504 52.1827 37.6752 51.8989 37.6713C51.4713 37.6656 51.0438 37.6713 50.6162 37.6713C49.8915 37.6713 49.3623 38.1247 49.3163 38.8655H47.2859C46.5324 38.8886 45.871 39.0256 45.2555 39.3015C44.594 39.5773 44.0246 39.967 43.5683 40.4493C43.089 40.9316 42.7247 41.5045 42.4735 42.1469C42.2224 42.7893 42.0862 43.478 42.0862 44.1899V54.0362C42.0632 54.1288 42.0632 54.1963 42.0632 54.2889V61.6794C42.0632 62.3913 42.1994 63.08 42.4505 63.7224C42.6691 64.2799 42.972 64.7872 43.3632 65.2271C43.4015 65.2695 43.4418 65.312 43.482 65.3525C43.9633 65.8348 44.5116 66.2245 45.175 66.5003C45.8154 66.7762 46.5478 66.9132 47.3492 66.9363H107.563C108.388 66.9363 109.12 66.7993 109.784 66.5003C111.716 65.6978 112.918 63.6876 112.918 61.6119V60.1438H112.941V23.3475C112.941 22.5894 113.17 21.947 113.605 21.374C113.873 21.0306 114.239 20.7934 114.703 20.6641C114.96 20.5869 115.244 20.5406 115.555 20.5252H153.76H153.766Z" fill="white"/>
<path d="M153.766 20.5252C154.679 20.5484 155.34 20.8242 155.773 21.374C156.207 21.947 156.412 22.5913 156.412 23.3475V27.5241C156.412 28.6372 157.844 29.0713 158.636 28.479C158.657 28.4597 158.678 28.4404 158.697 28.4192C158.925 28.1896 159.017 27.8906 159.017 27.5472V23.3938C159.039 23.1565 159.04 22.9289 159.025 22.7071C158.947 22.2016 158.826 21.7309 158.647 21.2583C158.398 20.6197 158.028 20.0429 157.564 19.5606C157.106 19.0976 156.561 18.7215 155.952 18.4591C155.357 18.2064 154.715 18.0694 153.983 18.0463H115.305V18.0694C114.642 18.1157 114.025 18.2527 113.474 18.4822C112.811 18.7581 112.261 19.1478 111.781 19.6301C111.302 20.1124 110.957 20.6853 110.683 21.3277C110.432 21.9701 110.294 22.6588 110.294 23.3707V53.9629C110.294 53.9629 110.294 53.9667 110.294 53.9687V54.0323C110.28 54.0883 110.274 54.1365 110.272 54.1905C110.272 54.2059 110.272 54.2214 110.272 54.2387V61.6293C110.272 61.6775 110.272 61.7238 110.271 61.772C110.257 62.4974 110.052 63.1166 109.634 63.6722C109.116 64.359 108.277 64.521 107.468 64.521H47.4738C46.5382 64.521 45.8307 64.2452 45.3974 63.6722C45.3955 63.6684 45.3916 63.6664 45.3897 63.6626C45.3725 63.6433 45.3552 63.624 45.3399 63.6047C44.9046 63.053 44.6765 62.3874 44.6765 61.6312V60.1631H44.6995V44.1667C44.6995 43.4086 44.9277 42.7662 45.3629 42.1932C45.7981 41.6415 46.5075 41.3444 47.445 41.3444V41.2981H49.2761C49.2761 41.3135 49.2799 41.329 49.2818 41.3444H49.3201C49.3374 41.6164 49.4333 41.8441 49.5809 42.0235C49.834 42.2974 50.2155 42.4459 50.6277 42.4459C51.0457 42.4459 51.4656 42.4459 51.8836 42.4459C52.6658 42.4459 53.1816 41.8769 53.1873 41.1071C53.1911 40.5805 53.1873 40.0558 53.1873 39.5291V38.9581C53.1873 38.4835 52.9783 38.1073 52.6447 37.8816C52.4357 37.7504 52.1827 37.6752 51.8989 37.6713C51.4713 37.6656 51.0438 37.6713 50.6162 37.6713C49.8915 37.6713 49.3623 38.1247 49.3163 38.8655H47.2859C46.5324 38.8886 45.871 39.0256 45.2555 39.3015C44.594 39.5773 44.0246 39.967 43.5683 40.4493C43.089 40.9316 42.7247 41.5045 42.4735 42.1469C42.2224 42.7893 42.0862 43.478 42.0862 44.1899V54.0362C42.0632 54.1288 42.0632 54.1963 42.0632 54.2889V61.6794C42.0632 62.3913 42.1994 63.08 42.4505 63.7224C42.6691 64.2799 42.972 64.7872 43.3632 65.2271C43.4015 65.2695 43.4418 65.312 43.482 65.3525C43.9633 65.8348 44.5116 66.2245 45.175 66.5003C45.8154 66.7762 46.5478 66.9132 47.3492 66.9363H107.563C108.388 66.9363 109.12 66.7993 109.784 66.5003C111.716 65.6978 112.918 63.6876 112.918 61.6119V60.1438H112.941V23.3475C112.941 22.5894 113.17 21.947 113.605 21.374C113.873 21.0306 114.239 20.7934 114.703 20.6641C114.96 20.5869 115.244 20.5406 115.555 20.5252H153.76H153.766Z" fill="white"/>
<path d="M148.543 40.8583C149.767 41.9772 152.29 41.7515 152.9 40.0326H152.923C152.923 40.0095 152.923 39.9632 152.946 39.94C153.015 39.7568 153.059 39.5735 153.082 39.3671C153.105 39.2745 153.105 39.2069 153.105 39.1375V38.9774C153.059 38.2887 152.992 37.6463 152.74 37.0039C152.238 35.7654 151.554 34.6851 150.664 33.7899C149.774 32.8948 148.703 32.2061 147.449 31.6775C144.906 30.6532 141.674 30.5297 139.147 31.6775C138.336 32.0286 137.527 32.4743 136.856 33.0588C136.371 33.4813 135.795 34.1893 135.155 33.5835C132.059 31.0023 127.829 30.1111 124.046 31.7007C122.792 32.2061 121.721 32.918 120.831 33.8131C119.941 34.7082 119.257 35.7634 118.755 37.027C118.252 38.2655 118.024 39.6198 118.024 41.0435V54.1944C118.047 54.8831 118.298 55.456 118.778 55.9152C119.8 56.8489 121.552 56.8875 122.564 55.9152C123.044 55.4792 123.295 54.9275 123.318 54.2619V41.0416C123.318 40.3992 123.41 39.8031 123.615 39.205C124.031 37.9974 124.859 36.9749 126.033 36.4502C127.325 35.8464 129.1 35.8252 130.389 36.4502C131.004 36.7492 131.507 37.1389 131.894 37.598C132.645 38.5318 133.052 39.7143 133.079 40.9123C133.083 41.0879 133.079 41.2653 133.079 41.4409V54.1925H133.102C133.125 54.8812 133.376 55.4541 133.855 55.8901C135.18 57.1016 137.663 56.6675 138.269 54.885C138.39 54.5281 138.395 54.1674 138.395 53.7989V41.0416C138.395 39.8185 138.733 38.5414 139.536 37.598C139.923 37.1158 140.426 36.7261 141.041 36.4502C142.331 35.8252 144.178 35.8252 145.466 36.4502C146.082 36.7492 146.584 37.1389 146.971 37.598C147.359 38.0803 147.633 38.6996 147.702 38.9755C147.725 39.0893 147.771 39.2513 147.815 39.4114C147.884 39.9844 148.135 40.4667 148.545 40.8583H148.543Z" fill="white"/>
<path d="M148.543 40.8583C149.767 41.9772 152.29 41.7515 152.9 40.0326H152.923C152.923 40.0095 152.923 39.9632 152.946 39.94C153.015 39.7568 153.059 39.5735 153.082 39.3671C153.105 39.2745 153.105 39.2069 153.105 39.1375V38.9774C153.059 38.2887 152.992 37.6463 152.74 37.0039C152.238 35.7654 151.554 34.6851 150.664 33.7899C149.774 32.8948 148.703 32.2061 147.449 31.6775C144.906 30.6532 141.674 30.5297 139.147 31.6775C138.336 32.0286 137.527 32.4743 136.856 33.0588C136.371 33.4813 135.795 34.1893 135.155 33.5835C132.059 31.0023 127.829 30.1111 124.046 31.7007C122.792 32.2061 121.721 32.918 120.831 33.8131C119.941 34.7082 119.257 35.7634 118.755 37.027C118.252 38.2655 118.024 39.6198 118.024 41.0435V54.1944C118.047 54.8831 118.298 55.456 118.778 55.9152C119.8 56.8489 121.552 56.8875 122.564 55.9152C123.044 55.4792 123.295 54.9275 123.318 54.2619V41.0416C123.318 40.3992 123.41 39.8031 123.615 39.205C124.031 37.9974 124.859 36.9749 126.033 36.4502C127.325 35.8464 129.1 35.8252 130.389 36.4502C131.004 36.7492 131.507 37.1389 131.894 37.598C132.645 38.5318 133.052 39.7143 133.079 40.9123C133.083 41.0879 133.079 41.2653 133.079 41.4409V54.1925H133.102C133.125 54.8812 133.376 55.4541 133.855 55.8901C135.18 57.1016 137.663 56.6675 138.269 54.885C138.39 54.5281 138.395 54.1674 138.395 53.7989V41.0416C138.395 39.8185 138.733 38.5414 139.536 37.598C139.923 37.1158 140.426 36.7261 141.041 36.4502C142.331 35.8252 144.178 35.8252 145.466 36.4502C146.082 36.7492 146.584 37.1389 146.971 37.598C147.359 38.0803 147.633 38.6996 147.702 38.9755C147.725 39.0893 147.771 39.2513 147.815 39.4114C147.884 39.9844 148.135 40.4667 148.545 40.8583H148.543Z" fill="white"/>
<path d="M167.954 46.9871V37.3241C167.985 37.2932 168 37.2701 168 37.2546C167.977 36.6354 167.726 36.0837 167.225 35.6014C166.042 34.4632 163.845 34.685 162.965 36.0972C162.655 36.5949 162.618 37.137 162.618 37.7061V41.3618C162.618 43.2118 162.934 45.0078 163.005 46.8463C162.959 48.1311 162.549 49.2789 161.796 50.2666C160.569 51.8447 158.201 52.2016 156.37 51.7212C155.447 51.4781 154.571 50.9939 153.985 50.2223C153.221 49.2191 152.685 47.8591 152.763 46.582C152.805 45.9107 152.997 45.2567 153.034 44.5853C153.072 43.8735 152.85 43.235 152.332 42.7392C151.335 41.736 149.552 41.7727 148.545 42.7392C148.043 43.2446 147.792 43.8176 147.792 44.46V46.9852C147.838 48.1793 148.066 49.3252 148.499 50.4287C148.979 51.646 149.663 52.7244 150.553 53.6195C151.442 54.5378 152.491 55.2496 153.724 55.7994C158.916 58.0237 165.082 55.6856 167.25 50.4287C167.684 49.3272 167.912 48.1793 167.958 46.9852L167.954 46.9871Z" fill="white"/>
<path d="M158.373 33.6761V31.5194C158.373 30.8943 157.482 30.6976 157.125 31.1528C156.977 31.34 157.004 31.5792 157.004 31.803V36.3847H156.981C156.195 36.3847 155.687 36.9595 155.681 37.7293C155.678 38.2578 155.681 38.7864 155.681 39.3131V39.8957C155.681 40.675 156.239 41.194 156.999 41.2036C157.426 41.2094 157.854 41.2036 158.281 41.2036C159.067 41.2036 159.575 40.6287 159.581 39.859C159.585 39.3304 159.581 38.8019 159.581 38.2752V37.6926C159.627 37.2798 159.512 36.9576 159.284 36.728C159.056 36.4985 158.759 36.3847 158.371 36.3847V33.6761H158.373Z" fill="white"/>
</g>
<defs>
<filter id="filter0_d_113_97" x="0" y="0" width="207" height="93" filterUnits="userSpaceOnUse" color-interpolation-filters="sRGB">
<feFlood flood-opacity="0" result="BackgroundImageFix"/>
<feColorMatrix in="SourceAlpha" type="matrix" values="0 0 0 0 0 0 0 0 0 0 0 0 0 0 0 0 0 0 127 0" result="hardAlpha"/>
<feOffset dy="4"/>
<feGaussianBlur stdDeviation="2"/>
<feComposite in2="hardAlpha" operator="out"/>
<feColorMatrix type="matrix" values="0 0 0 0 0 0 0 0 0 0 0 0 0 0 0 0 0 0 0.25 0"/>
<feBlend mode="normal" in2="BackgroundImageFix" result="effect1_dropShadow_113_97"/>
<feBlend mode="normal" in="SourceGraphic" in2="effect1_dropShadow_113_97" result="shape"/>
</filter>
<linearGradient id="paint0_linear_113_97" x1="-13.2469" y1="42.4944" x2="223.146" y2="42.4944" gradientUnits="userSpaceOnUse">
<stop stop-color="#DA5BDD"/>
<stop offset="0.2" stop-color="#9A66FF"/>
<stop offset="0.4" stop-color="#5F5FF9"/>
<stop offset="0.6" stop-color="#4DA9E8"/>
<stop offset="0.8" stop-color="#4BBCB4"/>
<stop offset="0.97" stop-color="#77BF96"/>
</linearGradient>
<clipPath id="clip0_113_97">
<rect width="126" height="49" fill="white" transform="translate(42 18)"/>
</clipPath>
</defs>
</svg>
