<?xml version="1.0" encoding="UTF-8"?>
<svg id="Layer_2" data-name="Layer 2" xmlns="http://www.w3.org/2000/svg" viewBox="0 0 1084.88 124.67">
  <defs>
    <style>
      .cls-1 {
        fill: #353638;
      }

      .cls-2 {
        fill: #fff;
      }
    </style>
  </defs>
  <g id="texto">
    <g>
      <rect class="cls-1" x="43.25" y="24.62" width="950.43" height=".75"/>
      <g>
        <path class="cls-1" d="M7.44,90.12c-.33,0-.59-.1-.76-.29s-.26-.45-.26-.79v-15.67c0-.35.09-.61.28-.79.18-.17.44-.26.77-.26h5.92c1.88,0,3.33.46,4.35,1.39s1.52,2.23,1.52,3.91-.51,2.97-1.52,3.9-2.47,1.4-4.35,1.4h-4.92v6.12c0,.33-.08.6-.25.79-.17.19-.43.29-.77.29ZM8.46,81.19h4.67c1.35,0,2.37-.3,3.06-.91.69-.61,1.04-1.5,1.04-2.66s-.35-2.08-1.04-2.69c-.69-.61-1.71-.91-3.06-.91h-4.67v7.17Z"/>
        <path class="cls-1" d="M25.19,90.17c-.83,0-1.58-.16-2.24-.49s-1.18-.77-1.56-1.34-.57-1.2-.57-1.9c0-.9.23-1.61.69-2.12.46-.52,1.22-.88,2.27-1.1,1.06-.22,2.5-.33,4.34-.33h1.12v1.33h-1.1c-1.35,0-2.41.06-3.19.19-.77.12-1.32.34-1.62.64-.31.3-.46.73-.46,1.28,0,.68.24,1.24.71,1.67.48.43,1.12.65,1.94.65.67,0,1.25-.16,1.76-.48.51-.32.91-.75,1.2-1.3.29-.55.44-1.18.44-1.9v-2.85c0-1.03-.21-1.78-.62-2.24-.42-.46-1.1-.69-2.05-.69-.58,0-1.17.08-1.75.22-.58.15-1.2.39-1.85.73-.23.12-.43.15-.6.11-.17-.04-.3-.13-.4-.26-.1-.13-.16-.29-.17-.46-.02-.18.02-.35.11-.51s.24-.3.44-.4c.73-.37,1.46-.63,2.18-.8.72-.17,1.4-.25,2.05-.25,1.05,0,1.92.17,2.6.51.68.34,1.19.86,1.52,1.55s.5,1.58.5,2.66v6.78c0,.33-.08.59-.24.78-.16.18-.39.27-.69.27-.32,0-.56-.09-.73-.27-.17-.18-.25-.44-.25-.78v-1.95h.23c-.13.63-.39,1.17-.76,1.62s-.84.8-1.39,1.05c-.55.25-1.17.38-1.85.38Z"/>
        <path class="cls-1" d="M38.91,90.17c-.98,0-1.8-.18-2.44-.54-.64-.36-1.12-.9-1.45-1.61s-.49-1.61-.49-2.67v-6.7c0-.35.09-.61.26-.78.18-.17.42-.25.74-.25.33,0,.59.08.76.25.18.17.26.42.26.78v6.67c0,1.07.22,1.86.66,2.39.44.52,1.14.79,2.09.79,1.03,0,1.88-.35,2.52-1.05s.98-1.62.98-2.75v-6.05c0-.35.09-.61.26-.78.18-.17.43-.25.76-.25s.56.08.74.25c.18.17.26.42.26.78v10.42c0,.7-.33,1.05-.98,1.05-.32,0-.56-.09-.74-.27-.18-.18-.26-.44-.26-.78v-2.28l.33.35c-.33.98-.88,1.73-1.64,2.25s-1.64.77-2.64.77Z"/>
        <path class="cls-1" d="M53.51,90.17c-.95,0-1.75-.17-2.39-.51-.64-.34-1.12-.84-1.44-1.5-.32-.66-.48-1.46-.48-2.41v-6.38h-1.68c-.28,0-.5-.07-.65-.21s-.23-.34-.23-.59.08-.44.23-.58c.15-.13.37-.2.65-.2h1.68v-2.88c0-.33.09-.59.27-.76.18-.18.43-.26.75-.26s.56.09.74.26c.18.17.26.43.26.76v2.88h3.15c.28,0,.5.07.65.2.15.13.23.33.23.58s-.07.45-.23.59c-.15.14-.37.21-.65.21h-3.15v6.17c0,.95.2,1.67.6,2.16s1.05.74,1.95.74c.32,0,.59-.03.81-.1.23-.07.41-.1.56-.1.15-.02.28.03.38.15.1.12.15.32.15.6,0,.2-.04.38-.11.55-.07.17-.2.28-.39.35-.2.07-.46.13-.79.19-.33.06-.62.09-.89.09Z"/>
        <path class="cls-1" d="M61.21,90.17c-.83,0-1.58-.16-2.24-.49s-1.18-.77-1.56-1.34-.57-1.2-.57-1.9c0-.9.23-1.61.69-2.12.46-.52,1.22-.88,2.27-1.1,1.06-.22,2.5-.33,4.34-.33h1.12v1.33h-1.1c-1.35,0-2.41.06-3.19.19-.77.12-1.32.34-1.62.64-.31.3-.46.73-.46,1.28,0,.68.24,1.24.71,1.67.48.43,1.12.65,1.94.65.67,0,1.25-.16,1.76-.48.51-.32.91-.75,1.2-1.3.29-.55.44-1.18.44-1.9v-2.85c0-1.03-.21-1.78-.62-2.24-.42-.46-1.1-.69-2.05-.69-.58,0-1.17.08-1.75.22-.58.15-1.2.39-1.85.73-.23.12-.43.15-.6.11-.17-.04-.3-.13-.4-.26-.1-.13-.16-.29-.17-.46-.02-.18.02-.35.11-.51s.24-.3.44-.4c.73-.37,1.46-.63,2.18-.8.72-.17,1.4-.25,2.05-.25,1.05,0,1.92.17,2.6.51.68.34,1.19.86,1.52,1.55s.5,1.58.5,2.66v6.78c0,.33-.08.59-.24.78-.16.18-.39.27-.69.27-.32,0-.56-.09-.73-.27-.17-.18-.25-.44-.25-.78v-1.95h.23c-.13.63-.39,1.17-.76,1.62s-.84.8-1.39,1.05c-.55.25-1.17.38-1.85.38Z"/>
        <path class="cls-1" d="M76.56,90.79c-.08.22-.2.38-.34.48-.14.1-.3.15-.49.15s-.35-.05-.49-.14c-.14-.09-.25-.22-.31-.39-.07-.17-.07-.36,0-.58l5.95-18.45c.08-.22.2-.38.35-.47.15-.1.31-.15.49-.15s.33.05.48.14c.14.09.24.22.3.39.06.17.05.36-.01.58l-5.92,18.45Z"/>
        <path class="cls-1" d="M1.12,119.94c-.37,0-.65-.1-.84-.29-.19-.19-.29-.47-.29-.84v-15.38c0-.37.1-.65.29-.84.19-.19.47-.29.84-.29h9.3c.28,0,.5.08.65.22.15.15.23.36.23.62,0,.28-.08.5-.23.65s-.37.22-.65.22H2v6.1h7.9c.28,0,.5.07.65.21.15.14.23.35.23.64s-.08.5-.23.65c-.15.15-.37.22-.65.22H2v6.35h8.43c.28,0,.5.07.65.22s.23.36.23.62c0,.28-.08.5-.23.65-.15.15-.37.22-.65.22H1.12Z"/>
        <path class="cls-1" d="M15.3,120.12c-.33,0-.58-.09-.75-.27-.17-.18-.25-.44-.25-.78v-10.42c0-.33.08-.59.25-.76s.41-.26.73-.26.56.09.74.26c.18.17.26.43.26.76v2.15l-.27-.3c.35-.97.92-1.7,1.71-2.19.79-.49,1.7-.74,2.74-.74.97,0,1.77.17,2.41.53.64.35,1.12.88,1.44,1.59.32.71.48,1.6.48,2.69v6.7c0,.33-.09.59-.26.78-.17.18-.42.27-.74.27-.33,0-.59-.09-.76-.27-.17-.18-.26-.44-.26-.78v-6.58c0-1.13-.22-1.96-.66-2.49-.44-.53-1.15-.79-2.11-.79-1.12,0-2,.35-2.66,1.04-.66.69-.99,1.61-.99,2.76v6.05c0,.7-.34,1.05-1.02,1.05Z"/>
        <path class="cls-1" d="M33.65,120.17c-1.22,0-2.27-.27-3.15-.8-.88-.53-1.56-1.28-2.04-2.24-.47-.96-.71-2.07-.71-3.34,0-.97.13-1.83.4-2.6s.66-1.42,1.18-1.96c.52-.54,1.14-.95,1.86-1.24.73-.28,1.55-.42,2.46-.42.6,0,1.23.09,1.88.28.65.18,1.24.5,1.78.95.17.12.27.26.32.43.05.17.05.33,0,.49-.05.16-.13.29-.25.4-.12.11-.26.17-.44.19-.17.02-.35-.04-.54-.17-.43-.33-.88-.57-1.32-.7-.45-.13-.88-.2-1.3-.2-.65,0-1.22.1-1.7.31-.48.21-.89.5-1.23.89-.33.38-.59.86-.76,1.43-.17.57-.26,1.22-.26,1.97,0,1.45.34,2.6,1.02,3.44.68.84,1.66,1.26,2.92,1.26.42,0,.85-.07,1.29-.2.44-.13.89-.37,1.34-.7.18-.13.36-.19.53-.17.17.02.31.08.42.19.12.11.2.25.24.41.04.17.04.33-.01.49-.05.16-.16.3-.33.41-.53.43-1.12.75-1.75.94s-1.25.29-1.85.29Z"/>
        <path class="cls-1" d="M43.8,120.17c-.83,0-1.58-.16-2.24-.49s-1.18-.77-1.56-1.34-.57-1.2-.57-1.9c0-.9.23-1.61.69-2.12.46-.52,1.22-.88,2.27-1.1,1.06-.22,2.5-.33,4.34-.33h1.12v1.33h-1.1c-1.35,0-2.41.06-3.19.19-.77.12-1.32.34-1.62.64-.31.3-.46.73-.46,1.28,0,.68.24,1.24.71,1.67.48.43,1.12.65,1.94.65.67,0,1.25-.16,1.76-.48.51-.32.91-.75,1.2-1.3.29-.55.44-1.18.44-1.9v-2.85c0-1.03-.21-1.78-.62-2.24-.42-.46-1.1-.69-2.05-.69-.58,0-1.17.08-1.75.22-.58.15-1.2.39-1.85.73-.23.12-.43.15-.6.11-.17-.04-.3-.13-.4-.26-.1-.13-.16-.29-.17-.46-.02-.18.02-.35.11-.51s.24-.3.44-.4c.73-.37,1.46-.63,2.18-.8.72-.17,1.4-.25,2.05-.25,1.05,0,1.92.17,2.6.51.68.34,1.19.86,1.52,1.55s.5,1.58.5,2.66v6.78c0,.33-.08.59-.24.78-.16.18-.39.27-.69.27-.32,0-.56-.09-.73-.27-.17-.18-.25-.44-.25-.78v-1.95h.23c-.13.63-.39,1.17-.76,1.62s-.84.8-1.39,1.05c-.55.25-1.17.38-1.85.38Z"/>
        <path class="cls-1" d="M54.25,120.12c-.33,0-.59-.09-.76-.27-.18-.18-.26-.44-.26-.78v-10.42c0-.33.08-.59.25-.76s.41-.26.73-.26.56.09.74.26c.18.17.26.43.26.76v2.02h-.25c.27-.98.77-1.74,1.52-2.27s1.68-.82,2.77-.85c.25-.02.45.04.6.16s.23.34.25.64c.02.28-.05.51-.2.67-.15.17-.38.27-.7.3l-.4.05c-1.13.1-2,.46-2.61,1.09s-.91,1.48-.91,2.56v6.05c0,.33-.09.59-.26.78-.17.18-.43.27-.76.27Z"/>
        <path class="cls-1" d="M67.4,124.67c-.88,0-1.75-.1-2.59-.31-.84-.21-1.6-.54-2.29-.99-.2-.12-.33-.26-.39-.42-.06-.17-.07-.33-.04-.49.03-.16.11-.3.23-.42.12-.12.25-.21.41-.24s.32,0,.49.08c.73.45,1.43.76,2.1.92.67.17,1.32.25,1.97.25,1.18,0,2.08-.32,2.69-.95.61-.63.91-1.55.91-2.75v-2.83h.25c-.25.97-.78,1.73-1.59,2.3-.81.57-1.75.85-2.84.85s-2.08-.25-2.9-.76c-.82-.51-1.45-1.22-1.89-2.14-.44-.92-.66-1.98-.66-3.17,0-.9.12-1.72.38-2.46.25-.74.61-1.38,1.09-1.9.48-.52,1.05-.93,1.73-1.22.68-.29,1.43-.44,2.26-.44,1.1,0,2.05.28,2.85.84.8.56,1.32,1.31,1.55,2.26l-.25.3v-2.33c0-.33.09-.59.26-.76.17-.17.42-.26.74-.26.33,0,.58.09.75.26.17.17.25.43.25.76v10.42c0,1.85-.46,3.25-1.39,4.19-.92.94-2.29,1.41-4.09,1.41ZM67.1,118.02c.78,0,1.46-.18,2.02-.54.57-.36,1-.87,1.31-1.54.31-.67.46-1.45.46-2.35,0-1.35-.34-2.42-1.02-3.21-.68-.79-1.61-1.19-2.77-1.19-.77,0-1.43.18-2,.54-.57.36-1,.87-1.31,1.53-.31.66-.46,1.44-.46,2.34,0,1.35.34,2.42,1.02,3.22.68.8,1.6,1.2,2.75,1.2Z"/>
        <path class="cls-1" d="M81.72,120.17c-1.18,0-2.21-.26-3.08-.77-.87-.52-1.54-1.25-2.01-2.19-.47-.94-.71-2.05-.71-3.34,0-.97.13-1.84.4-2.61s.66-1.44,1.18-1.99c.52-.55,1.13-.97,1.84-1.26.71-.29,1.5-.44,2.39-.44,1.18,0,2.21.26,3.07.78s1.54,1.25,2.01,2.19.71,2.05.71,3.34c0,.97-.13,1.83-.4,2.6-.27.77-.66,1.43-1.18,1.99s-1.13.98-1.84,1.27c-.71.29-1.5.44-2.39.44ZM81.72,118.54c.75,0,1.41-.18,1.97-.55.57-.37,1-.9,1.31-1.6s.46-1.54.46-2.53c0-1.52-.34-2.67-1.01-3.47s-1.59-1.2-2.74-1.2c-.77,0-1.43.18-1.99.54-.56.36-.99.88-1.3,1.58-.31.69-.46,1.55-.46,2.56,0,1.5.34,2.65,1.02,3.46.68.81,1.59,1.21,2.73,1.21Z"/>
      </g>
      <g>
        <path class="cls-1" d="M197.75,89.94c-.37,0-.65-.1-.84-.29-.19-.19-.29-.47-.29-.84v-15.38c0-.37.1-.65.29-.84.19-.19.47-.29.84-.29h4.83c2.85,0,5.05.75,6.6,2.25,1.55,1.5,2.32,3.68,2.32,6.55,0,1.43-.2,2.7-.59,3.79s-.97,2.01-1.74,2.76c-.77.75-1.7,1.32-2.8,1.7-1.1.38-2.37.58-3.8.58h-4.83ZM198.67,88.19h3.75c1.17,0,2.18-.15,3.04-.45.86-.3,1.57-.74,2.15-1.33.57-.58,1-1.32,1.29-2.21.28-.89.42-1.92.42-3.09,0-2.35-.58-4.11-1.73-5.29s-2.88-1.76-5.17-1.76h-3.75v14.12Z"/>
        <path class="cls-1" d="M215.9,74.87c-.42,0-.74-.11-.98-.34-.23-.23-.35-.53-.35-.91s.12-.7.35-.91.56-.31.98-.31.76.1.99.31c.22.21.34.51.34.91s-.11.69-.34.91c-.23.22-.55.34-.99.34ZM215.9,90.07c-.33,0-.58-.1-.75-.29s-.25-.46-.25-.81v-10.23c0-.35.08-.62.25-.8s.42-.28.75-.28.57.09.75.28c.18.18.27.45.27.8v10.23c0,.35-.09.62-.26.81-.18.19-.43.29-.76.29Z"/>
        <path class="cls-1" d="M224.8,90.16c-.75,0-1.5-.09-2.26-.27-.76-.18-1.46-.5-2.11-.95-.17-.12-.28-.25-.35-.41-.07-.16-.09-.32-.06-.48.02-.16.09-.3.2-.41.11-.12.24-.19.4-.21.16-.02.34.01.54.11.65.4,1.28.68,1.89.84s1.21.24,1.81.24c.95,0,1.67-.17,2.15-.52.48-.35.72-.83.72-1.43,0-.47-.16-.84-.47-1.11-.32-.27-.82-.49-1.5-.64l-2.28-.5c-1.05-.22-1.83-.59-2.34-1.12-.51-.53-.76-1.22-.76-2.07,0-.75.2-1.4.59-1.94.39-.54.95-.96,1.66-1.26.72-.3,1.55-.45,2.5-.45.73,0,1.43.1,2.09.29.66.19,1.25.5,1.79.91.17.12.28.25.34.41.06.16.07.32.02.48-.04.16-.12.29-.24.4-.12.11-.26.17-.43.19s-.34-.03-.52-.15c-.5-.33-1.01-.58-1.52-.74-.52-.16-1.02-.24-1.52-.24-.93,0-1.64.18-2.12.55-.48.37-.73.85-.73,1.45,0,.47.15.85.45,1.15.3.3.77.52,1.4.65l2.27.48c1.08.23,1.9.6,2.44,1.11.54.51.81,1.2.81,2.06,0,1.1-.44,1.97-1.33,2.62s-2.06.97-3.52.97Z"/>
        <path class="cls-1" d="M238.2,90.16c-1.28,0-2.39-.25-3.31-.76-.92-.51-1.64-1.23-2.15-2.16-.51-.93-.76-2.05-.76-3.35s.25-2.37.75-3.31,1.19-1.68,2.06-2.21c.88-.53,1.89-.8,3.04-.8.82,0,1.55.14,2.2.41.65.28,1.2.67,1.66,1.19.46.52.81,1.14,1.05,1.88.24.73.36,1.56.36,2.48,0,.27-.07.46-.23.59-.15.12-.37.19-.65.19h-8.7v-1.32h8.22l-.4.32c0-.9-.13-1.66-.4-2.29s-.65-1.1-1.16-1.44c-.51-.33-1.15-.5-1.91-.5-.85,0-1.57.2-2.16.59-.59.39-1.04.93-1.34,1.62-.3.69-.45,1.5-.45,2.41v.15c0,1.53.37,2.7,1.11,3.5.74.8,1.8,1.2,3.16,1.2.57,0,1.13-.07,1.69-.22.56-.15,1.1-.4,1.64-.75.23-.15.45-.22.64-.21.19,0,.35.07.46.18s.2.24.24.4c.04.16.02.33-.05.51-.07.18-.22.34-.44.47-.55.4-1.2.71-1.95.93-.75.22-1.49.32-2.23.32Z"/>
        <path class="cls-1" d="M247.02,90.12c-.33,0-.58-.09-.75-.27-.17-.18-.25-.44-.25-.78v-10.42c0-.33.08-.59.25-.76s.41-.26.73-.26.56.09.74.26c.18.17.26.43.26.76v2.15l-.27-.3c.35-.97.92-1.7,1.71-2.19.79-.49,1.7-.74,2.74-.74.97,0,1.77.17,2.41.53.64.35,1.12.88,1.44,1.59.32.71.48,1.6.48,2.69v6.7c0,.33-.09.59-.26.78-.17.18-.42.27-.74.27-.33,0-.59-.09-.76-.27-.17-.18-.26-.44-.26-.78v-6.58c0-1.13-.22-1.96-.66-2.49-.44-.53-1.15-.79-2.11-.79-1.12,0-2,.35-2.66,1.04-.66.69-.99,1.61-.99,2.76v6.05c0,.7-.34,1.05-1.02,1.05ZM247.32,75.27c-.17,0-.3-.06-.41-.17-.11-.12-.14-.29-.09-.53.07-.4.17-.77.3-1.1.13-.33.31-.62.52-.88.22-.25.47-.45.76-.59.29-.14.63-.21,1.01-.21.42,0,.78.1,1.09.29.31.19.6.41.88.65.27.24.55.46.81.66.27.2.55.3.85.3.38,0,.7-.15.96-.44.26-.29.43-.68.51-1.16.03-.17.1-.29.21-.36.11-.07.25-.1.44-.09.17,0,.3.06.41.17.11.12.14.29.09.53-.08.52-.24.98-.46,1.4-.23.42-.51.75-.86,1s-.77.38-1.27.38c-.42,0-.78-.1-1.09-.29s-.6-.41-.88-.66c-.27-.25-.55-.47-.81-.66s-.55-.29-.85-.29c-.38,0-.7.14-.95.42s-.42.67-.52,1.17c-.03.15-.1.27-.21.35-.11.08-.25.12-.44.1Z"/>
        <path class="cls-1" d="M265.27,90.16c-1.18,0-2.21-.26-3.08-.77-.87-.52-1.54-1.25-2.01-2.19-.47-.94-.71-2.05-.71-3.34,0-.97.13-1.84.4-2.61s.66-1.44,1.18-1.99c.52-.55,1.13-.97,1.84-1.26.71-.29,1.5-.44,2.39-.44,1.18,0,2.21.26,3.07.78s1.54,1.25,2.01,2.19.71,2.05.71,3.34c0,.97-.13,1.83-.4,2.6-.27.77-.66,1.43-1.18,1.99s-1.13.98-1.84,1.27c-.71.29-1.5.44-2.39.44ZM265.27,88.54c.75,0,1.41-.18,1.97-.55.57-.37,1-.9,1.31-1.6s.46-1.54.46-2.53c0-1.52-.34-2.67-1.01-3.47s-1.59-1.2-2.74-1.2c-.77,0-1.43.18-1.99.54-.56.36-.99.88-1.3,1.58-.31.69-.46,1.55-.46,2.56,0,1.5.34,2.65,1.02,3.46.68.81,1.59,1.21,2.73,1.21Z"/>
      </g>
      <g>
        <path class="cls-1" d="M346.62,90.12c-.33,0-.59-.1-.76-.29s-.26-.45-.26-.79v-15.82c0-.35.09-.62.26-.8.17-.18.43-.27.76-.27s.59.09.76.27c.18.18.26.45.26.8v15.82c0,.33-.08.6-.25.79-.17.19-.43.29-.77.29Z"/>
        <path class="cls-1" d="M352.75,90.12c-.33,0-.58-.09-.75-.27-.17-.18-.25-.44-.25-.78v-10.42c0-.33.08-.59.25-.76s.41-.26.73-.26.56.09.74.26c.18.17.26.43.26.76v2.15l-.27-.3c.35-.97.92-1.7,1.71-2.19.79-.49,1.7-.74,2.74-.74.97,0,1.77.17,2.41.53.64.35,1.12.88,1.44,1.59.32.71.48,1.6.48,2.69v6.7c0,.33-.09.59-.26.78-.17.18-.42.27-.74.27-.33,0-.59-.09-.76-.27-.17-.18-.26-.44-.26-.78v-6.58c0-1.13-.22-1.96-.66-2.49-.44-.53-1.15-.79-2.11-.79-1.12,0-2,.35-2.66,1.04-.66.69-.99,1.61-.99,2.76v6.05c0,.7-.34,1.05-1.02,1.05Z"/>
        <path class="cls-1" d="M370.35,90.12c-.28,0-.53-.08-.75-.24s-.4-.4-.55-.74l-4.33-10.1c-.12-.25-.16-.48-.12-.7s.13-.39.3-.53c.17-.13.4-.2.7-.2.27,0,.48.06.62.17.15.12.28.33.4.62l4.1,10.03h-.67l4.17-10.03c.12-.3.25-.51.4-.62.15-.12.37-.17.65-.17.27,0,.47.07.61.2.14.13.23.3.25.51s-.01.44-.11.69l-4.38,10.12c-.12.33-.29.58-.51.74s-.49.24-.79.24Z"/>
        <path class="cls-1" d="M384,90.17c-1.28,0-2.39-.25-3.31-.76-.92-.51-1.64-1.23-2.15-2.16-.51-.93-.76-2.05-.76-3.35s.25-2.37.75-3.31,1.19-1.68,2.06-2.21c.88-.53,1.89-.8,3.04-.8.82,0,1.55.14,2.2.41.65.28,1.2.67,1.66,1.19.46.52.81,1.14,1.05,1.88.24.73.36,1.56.36,2.48,0,.27-.07.46-.23.59-.15.12-.37.19-.65.19h-8.7v-1.32h8.22l-.4.32c0-.9-.13-1.66-.4-2.29s-.65-1.1-1.16-1.44c-.51-.33-1.15-.5-1.91-.5-.85,0-1.57.2-2.16.59-.59.39-1.04.93-1.34,1.62-.3.69-.45,1.5-.45,2.41v.15c0,1.53.37,2.7,1.11,3.5.74.8,1.8,1.2,3.16,1.2.57,0,1.13-.07,1.69-.22.56-.15,1.1-.4,1.64-.75.23-.15.45-.22.64-.21.19,0,.35.07.46.18s.2.24.24.4c.04.16.02.33-.05.51-.07.18-.22.34-.44.47-.55.4-1.2.71-1.95.93-.75.22-1.49.32-2.23.32Z"/>
        <path class="cls-1" d="M395.92,90.17c-.75,0-1.5-.09-2.26-.27-.76-.18-1.46-.5-2.11-.95-.17-.12-.28-.25-.35-.41-.07-.16-.09-.32-.06-.48.02-.16.09-.3.2-.41.11-.12.24-.19.4-.21.16-.02.34.01.54.11.65.4,1.28.68,1.89.84s1.21.24,1.81.24c.95,0,1.67-.17,2.15-.52.48-.35.72-.83.72-1.43,0-.47-.16-.84-.47-1.11-.32-.27-.82-.49-1.5-.64l-2.28-.5c-1.05-.22-1.83-.59-2.34-1.12-.51-.53-.76-1.22-.76-2.07,0-.75.2-1.4.59-1.94.39-.54.95-.96,1.66-1.26.72-.3,1.55-.45,2.5-.45.73,0,1.43.1,2.09.29.66.19,1.25.5,1.79.91.17.12.28.25.34.41.06.16.07.32.02.48-.04.16-.12.29-.24.4-.12.11-.26.17-.43.19s-.34-.03-.52-.15c-.5-.33-1.01-.58-1.52-.74-.52-.16-1.02-.24-1.52-.24-.93,0-1.64.18-2.12.55-.48.37-.73.85-.73,1.45,0,.47.15.85.45,1.15.3.3.77.52,1.4.65l2.27.48c1.08.23,1.9.6,2.44,1.11.54.51.81,1.2.81,2.06,0,1.1-.44,1.97-1.33,2.62s-2.06.97-3.52.97Z"/>
        <path class="cls-1" d="M408.6,90.17c-.95,0-1.75-.17-2.39-.51-.64-.34-1.12-.84-1.44-1.5-.32-.66-.48-1.46-.48-2.41v-6.38h-1.68c-.28,0-.5-.07-.65-.21s-.23-.34-.23-.59.08-.44.23-.58c.15-.13.37-.2.65-.2h1.68v-2.88c0-.33.09-.59.27-.76.18-.18.43-.26.75-.26s.56.09.74.26c.18.17.26.43.26.76v2.88h3.15c.28,0,.5.07.65.2.15.13.23.33.23.58s-.07.45-.23.59c-.15.14-.37.21-.65.21h-3.15v6.17c0,.95.2,1.67.6,2.16s1.05.74,1.95.74c.32,0,.59-.03.81-.1.23-.07.41-.1.56-.1.15-.02.28.03.38.15.1.12.15.32.15.6,0,.2-.04.38-.11.55-.07.17-.2.28-.39.35-.2.07-.46.13-.79.19-.33.06-.62.09-.89.09Z"/>
        <path class="cls-1" d="M413.62,74.87c-.42,0-.74-.11-.98-.34-.23-.23-.35-.53-.35-.91s.12-.7.35-.91.56-.31.98-.31.76.1.99.31c.22.21.34.51.34.91s-.11.69-.34.91c-.23.22-.55.34-.99.34ZM413.62,90.07c-.33,0-.58-.1-.75-.29s-.25-.46-.25-.81v-10.23c0-.35.08-.62.25-.8s.42-.28.75-.28.57.09.75.28c.18.18.27.45.27.8v10.23c0,.35-.09.62-.26.81-.18.19-.43.29-.76.29Z"/>
        <path class="cls-1" d="M423.8,94.67c-.88,0-1.75-.1-2.59-.31-.84-.21-1.6-.54-2.29-.99-.2-.12-.33-.26-.39-.42-.06-.17-.07-.33-.04-.49.03-.16.11-.3.23-.42.12-.12.25-.21.41-.24s.32,0,.49.08c.73.45,1.43.76,2.1.92.67.17,1.32.25,1.97.25,1.18,0,2.08-.32,2.69-.95.61-.63.91-1.55.91-2.75v-2.83h.25c-.25.97-.78,1.73-1.59,2.3-.81.57-1.75.85-2.84.85s-2.08-.25-2.9-.76c-.82-.51-1.45-1.22-1.89-2.14-.44-.92-.66-1.98-.66-3.17,0-.9.12-1.72.38-2.46.25-.74.61-1.38,1.09-1.9.48-.52,1.05-.93,1.73-1.22.68-.29,1.43-.44,2.26-.44,1.1,0,2.05.28,2.85.84.8.56,1.32,1.31,1.55,2.26l-.25.3v-2.33c0-.33.09-.59.26-.76.17-.17.42-.26.74-.26.33,0,.58.09.75.26.17.17.25.43.25.76v10.42c0,1.85-.46,3.25-1.39,4.19-.92.94-2.29,1.41-4.09,1.41ZM423.5,88.02c.78,0,1.46-.18,2.02-.54.57-.36,1-.87,1.31-1.54.31-.67.46-1.45.46-2.35,0-1.35-.34-2.42-1.02-3.21-.68-.79-1.61-1.19-2.77-1.19-.77,0-1.43.18-2,.54-.57.36-1,.87-1.31,1.53-.31.66-.46,1.44-.46,2.34,0,1.35.34,2.42,1.02,3.22.68.8,1.6,1.2,2.75,1.2Z"/>
        <path class="cls-1" d="M436.9,90.17c-.83,0-1.58-.16-2.24-.49s-1.18-.77-1.56-1.34-.57-1.2-.57-1.9c0-.9.23-1.61.69-2.12.46-.52,1.22-.88,2.27-1.1,1.06-.22,2.5-.33,4.34-.33h1.12v1.33h-1.1c-1.35,0-2.41.06-3.19.19-.77.12-1.32.34-1.62.64-.31.3-.46.73-.46,1.28,0,.68.24,1.24.71,1.67.48.43,1.12.65,1.94.65.67,0,1.25-.16,1.76-.48.51-.32.91-.75,1.2-1.3.29-.55.44-1.18.44-1.9v-2.85c0-1.03-.21-1.78-.62-2.24-.42-.46-1.1-.69-2.05-.69-.58,0-1.17.08-1.75.22-.58.15-1.2.39-1.85.73-.23.12-.43.15-.6.11-.17-.04-.3-.13-.4-.26-.1-.13-.16-.29-.17-.46-.02-.18.02-.35.11-.51s.24-.3.44-.4c.73-.37,1.46-.63,2.18-.8.72-.17,1.4-.25,2.05-.25,1.05,0,1.92.17,2.6.51.68.34,1.19.86,1.52,1.55s.5,1.58.5,2.66v6.78c0,.33-.08.59-.24.78-.16.18-.39.27-.69.27-.32,0-.56-.09-.73-.27-.17-.18-.25-.44-.25-.78v-1.95h.23c-.13.63-.39,1.17-.76,1.62s-.84.8-1.39,1.05c-.55.25-1.17.38-1.85.38Z"/>
        <path class="cls-1" d="M451.47,90.17c-1.22,0-2.27-.27-3.15-.8-.88-.53-1.56-1.28-2.04-2.24-.47-.96-.71-2.07-.71-3.34,0-.97.13-1.83.4-2.6s.66-1.42,1.18-1.96c.52-.54,1.14-.95,1.86-1.24.73-.28,1.55-.42,2.46-.42.6,0,1.23.09,1.88.28.65.18,1.24.5,1.78.95.17.12.27.26.32.43.05.17.05.33,0,.49-.05.16-.13.29-.25.4-.12.11-.26.17-.44.19-.17.02-.35-.04-.54-.17-.43-.33-.88-.57-1.32-.7-.45-.13-.88-.2-1.3-.2-.65,0-1.22.1-1.7.31-.48.21-.89.5-1.23.89-.33.38-.59.86-.76,1.43-.17.57-.26,1.22-.26,1.97,0,1.45.34,2.6,1.02,3.44.68.84,1.66,1.26,2.92,1.26.42,0,.85-.07,1.29-.2.44-.13.89-.37,1.34-.7.18-.13.36-.19.53-.17.17.02.31.08.42.19.12.11.2.25.24.41.04.17.04.33-.01.49-.05.16-.16.3-.33.41-.53.43-1.12.75-1.75.94s-1.25.29-1.85.29Z"/>
        <path class="cls-1" d="M458.9,74.87c-.42,0-.74-.11-.98-.34-.23-.23-.35-.53-.35-.91s.12-.7.35-.91.56-.31.98-.31.76.1.99.31c.22.21.34.51.34.91s-.11.69-.34.91c-.23.22-.55.34-.99.34ZM458.9,90.07c-.33,0-.58-.1-.75-.29s-.25-.46-.25-.81v-10.23c0-.35.08-.62.25-.8s.42-.28.75-.28.57.09.75.28c.18.18.27.45.27.8v10.23c0,.35-.09.62-.26.81-.18.19-.43.29-.76.29Z"/>
        <path class="cls-1" d="M468.75,90.17c-1.18,0-2.21-.26-3.08-.77-.87-.52-1.54-1.25-2.01-2.19-.47-.94-.71-2.05-.71-3.34,0-.97.13-1.84.4-2.61s.66-1.44,1.18-1.99c.52-.55,1.13-.97,1.84-1.26.71-.29,1.5-.44,2.39-.44,1.18,0,2.21.26,3.07.78s1.54,1.25,2.01,2.19.71,2.05.71,3.34c0,.97-.13,1.83-.4,2.6-.27.77-.66,1.43-1.18,1.99s-1.13.98-1.84,1.27c-.71.29-1.5.44-2.39.44ZM468.75,88.54c.75,0,1.41-.18,1.97-.55.57-.37,1-.9,1.31-1.6s.46-1.54.46-2.53c0-1.52-.34-2.67-1.01-3.47s-1.59-1.2-2.74-1.2c-.77,0-1.43.18-1.99.54-.56.36-.99.88-1.3,1.58-.31.69-.46,1.55-.46,2.56,0,1.5.34,2.65,1.02,3.46.68.81,1.59,1.21,2.73,1.21ZM469.57,76.04c-.12.17-.26.26-.42.29-.17.02-.33,0-.48-.08s-.26-.19-.33-.34c-.07-.15-.05-.32.05-.52l2.1-4.08c.12-.23.27-.38.45-.45.18-.07.37-.08.56-.04.19.04.35.13.49.26s.21.29.24.47-.03.38-.16.58l-2.5,3.9Z"/>
        <path class="cls-1" d="M478.59,90.12c-.33,0-.58-.09-.75-.27-.17-.18-.25-.44-.25-.78v-10.42c0-.33.08-.59.25-.76s.41-.26.73-.26.56.09.74.26c.18.17.26.43.26.76v2.15l-.27-.3c.35-.97.92-1.7,1.71-2.19.79-.49,1.7-.74,2.74-.74.97,0,1.77.17,2.41.53.64.35,1.12.88,1.44,1.59.32.71.48,1.6.48,2.69v6.7c0,.33-.09.59-.26.78-.17.18-.42.27-.74.27-.33,0-.59-.09-.76-.27-.17-.18-.26-.44-.26-.78v-6.58c0-1.13-.22-1.96-.66-2.49-.44-.53-1.15-.79-2.11-.79-1.12,0-2,.35-2.66,1.04-.66.69-.99,1.61-.99,2.76v6.05c0,.7-.34,1.05-1.02,1.05Z"/>
        <path class="cls-1" d="M497.72,90.79c-.08.22-.2.38-.34.48-.14.1-.3.15-.49.15s-.35-.05-.49-.14c-.14-.09-.25-.22-.31-.39-.07-.17-.07-.36,0-.58l5.95-18.45c.08-.22.2-.38.35-.47.15-.1.31-.15.49-.15s.33.05.48.14c.14.09.24.22.3.39.06.17.05.36-.01.58l-5.92,18.45Z"/>
        <path class="cls-1" d="M364.78,120.12c-.33,0-.59-.1-.76-.29s-.26-.45-.26-.79v-15.67c0-.35.09-.61.28-.79.18-.17.44-.26.77-.26h5.92c1.88,0,3.33.46,4.35,1.39s1.52,2.23,1.52,3.91-.51,2.97-1.52,3.9-2.47,1.4-4.35,1.4h-4.92v6.12c0,.33-.08.6-.25.79-.17.19-.43.29-.77.29ZM365.81,111.19h4.67c1.35,0,2.37-.3,3.06-.91.69-.61,1.04-1.5,1.04-2.66s-.35-2.08-1.04-2.69c-.69-.61-1.71-.91-3.06-.91h-4.67v7.17Z"/>
        <path class="cls-1" d="M380.08,120.12c-.33,0-.59-.09-.76-.27-.18-.18-.26-.44-.26-.78v-10.42c0-.33.08-.59.25-.76s.41-.26.73-.26.56.09.74.26c.18.17.26.43.26.76v2.02h-.25c.27-.98.77-1.74,1.52-2.27s1.68-.82,2.77-.85c.25-.02.45.04.6.16s.23.34.25.64c.02.28-.05.51-.2.67-.15.17-.38.27-.7.3l-.4.05c-1.13.1-2,.46-2.61,1.09s-.91,1.48-.91,2.56v6.05c0,.33-.09.59-.26.78-.17.18-.43.27-.76.27Z"/>
        <path class="cls-1" d="M392.91,120.17c-1.18,0-2.21-.26-3.08-.77-.87-.52-1.54-1.25-2.01-2.19-.47-.94-.71-2.05-.71-3.34,0-.97.13-1.84.4-2.61s.66-1.44,1.18-1.99c.52-.55,1.13-.97,1.84-1.26.71-.29,1.5-.44,2.39-.44,1.18,0,2.21.26,3.07.78s1.54,1.25,2.01,2.19.71,2.05.71,3.34c0,.97-.13,1.83-.4,2.6-.27.77-.66,1.43-1.18,1.99s-1.13.98-1.84,1.27c-.71.29-1.5.44-2.39.44ZM392.91,118.54c.75,0,1.41-.18,1.97-.55.57-.37,1-.9,1.31-1.6s.46-1.54.46-2.53c0-1.52-.34-2.67-1.01-3.47s-1.59-1.2-2.74-1.2c-.77,0-1.43.18-1.99.54-.56.36-.99.88-1.3,1.58-.31.69-.46,1.55-.46,2.56,0,1.5.34,2.65,1.02,3.46.68.81,1.59,1.21,2.73,1.21Z"/>
        <path class="cls-1" d="M406.38,120.17c-1.08,0-2.03-.26-2.84-.77-.81-.52-1.43-1.25-1.88-2.19-.44-.94-.66-2.05-.66-3.34s.22-2.42.66-3.36c.44-.94,1.07-1.67,1.88-2.17.81-.51,1.75-.76,2.84-.76s2.04.28,2.83.83c.78.55,1.31,1.29,1.57,2.22h-.27v-7.45c0-.33.09-.59.26-.76.17-.18.43-.26.76-.26s.56.09.74.26c.17.17.26.43.26.76v15.9c0,.33-.08.59-.25.78-.17.18-.42.27-.75.27s-.56-.09-.74-.27c-.17-.18-.26-.44-.26-.78v-2.38l.28.35c-.27.95-.8,1.71-1.59,2.28s-1.74.85-2.84.85ZM406.81,118.54c.75,0,1.41-.18,1.97-.55.57-.37,1-.9,1.31-1.6s.46-1.54.46-2.53c0-1.52-.34-2.67-1.01-3.47s-1.59-1.2-2.74-1.2c-.77,0-1.43.18-1.99.54-.56.36-.99.88-1.3,1.58-.31.69-.46,1.55-.46,2.56,0,1.5.34,2.65,1.02,3.46.68.81,1.59,1.21,2.73,1.21Z"/>
        <path class="cls-1" d="M420.63,120.17c-.98,0-1.8-.18-2.44-.54-.64-.36-1.12-.9-1.45-1.61s-.49-1.61-.49-2.67v-6.7c0-.35.09-.61.26-.78.18-.17.42-.25.74-.25.33,0,.59.08.76.25.18.17.26.42.26.78v6.67c0,1.07.22,1.86.66,2.39.44.52,1.14.79,2.09.79,1.03,0,1.88-.35,2.52-1.05s.98-1.62.98-2.75v-6.05c0-.35.09-.61.26-.78.18-.17.43-.25.76-.25s.56.08.74.25c.18.17.26.42.26.78v10.42c0,.7-.33,1.05-.98,1.05-.32,0-.56-.09-.74-.27-.18-.18-.26-.44-.26-.78v-2.28l.33.35c-.33.98-.88,1.73-1.64,2.25s-1.64.77-2.64.77Z"/>
        <path class="cls-1" d="M435.51,120.17c-1.22,0-2.27-.27-3.15-.8-.88-.53-1.56-1.28-2.04-2.24-.47-.96-.71-2.07-.71-3.34,0-.97.13-1.83.4-2.6s.66-1.42,1.18-1.96c.52-.54,1.14-.95,1.86-1.24.73-.28,1.55-.42,2.46-.42.6,0,1.23.09,1.88.28.65.18,1.24.5,1.78.95.17.12.27.26.32.43.05.17.05.33,0,.49-.05.16-.13.29-.25.4-.12.11-.26.17-.44.19-.17.02-.35-.04-.54-.17-.43-.33-.88-.57-1.32-.7-.45-.13-.88-.2-1.3-.2-.65,0-1.22.1-1.7.31-.48.21-.89.5-1.23.89-.33.38-.59.86-.76,1.43-.17.57-.26,1.22-.26,1.97,0,1.45.34,2.6,1.02,3.44.68.84,1.66,1.26,2.92,1.26.42,0,.85-.07,1.29-.2.44-.13.89-.37,1.34-.7.18-.13.36-.19.53-.17.17.02.31.08.42.19.12.11.2.25.24.41.04.17.04.33-.01.49-.05.16-.16.3-.33.41-.53.43-1.12.75-1.75.94s-1.25.29-1.85.29Z"/>
        <path class="cls-1" d="M446.83,120.17c-1.22,0-2.27-.27-3.15-.8-.88-.53-1.56-1.28-2.04-2.24-.47-.96-.71-2.07-.71-3.34,0-.97.13-1.83.4-2.6s.66-1.42,1.18-1.96c.52-.54,1.14-.95,1.86-1.24.73-.28,1.55-.42,2.46-.42.6,0,1.23.09,1.88.28.65.18,1.24.5,1.78.95.17.12.27.26.32.43.05.17.05.33,0,.49-.05.16-.13.29-.25.4-.12.11-.26.17-.44.19-.17.02-.35-.04-.54-.17-.43-.33-.88-.57-1.32-.7-.45-.13-.88-.2-1.3-.2-.65,0-1.22.1-1.7.31-.48.21-.89.5-1.23.89-.33.38-.59.86-.76,1.43-.17.57-.26,1.22-.26,1.97,0,1.45.34,2.6,1.02,3.44.68.84,1.66,1.26,2.92,1.26.42,0,.85-.07,1.29-.2.44-.13.89-.37,1.34-.7.18-.13.36-.19.53-.17.17.02.31.08.42.19.12.11.2.25.24.41.04.17.04.33-.01.49-.05.16-.16.3-.33.41-.53.43-1.12.75-1.75.94s-1.25.29-1.85.29Z"/>
        <path class="cls-1" d="M454.26,104.87c-.42,0-.74-.11-.98-.34-.23-.23-.35-.53-.35-.91s.12-.7.35-.91.56-.31.98-.31.76.1.99.31c.22.21.34.51.34.91s-.11.69-.34.91c-.23.22-.55.34-.99.34ZM454.26,120.07c-.33,0-.58-.1-.75-.29s-.25-.46-.25-.81v-10.23c0-.35.08-.62.25-.8s.42-.28.75-.28.57.09.75.28c.18.18.27.45.27.8v10.23c0,.35-.09.62-.26.81-.18.19-.43.29-.76.29Z"/>
        <path class="cls-1" d="M464.11,120.17c-1.18,0-2.21-.26-3.08-.77-.87-.52-1.54-1.25-2.01-2.19-.47-.94-.71-2.05-.71-3.34,0-.97.13-1.84.4-2.61s.66-1.44,1.18-1.99c.52-.55,1.13-.97,1.84-1.26.71-.29,1.5-.44,2.39-.44,1.18,0,2.21.26,3.07.78s1.54,1.25,2.01,2.19.71,2.05.71,3.34c0,.97-.13,1.83-.4,2.6-.27.77-.66,1.43-1.18,1.99s-1.13.98-1.84,1.27c-.71.29-1.5.44-2.39.44ZM464.11,118.54c.75,0,1.41-.18,1.97-.55.57-.37,1-.9,1.31-1.6s.46-1.54.46-2.53c0-1.52-.34-2.67-1.01-3.47s-1.59-1.2-2.74-1.2c-.77,0-1.43.18-1.99.54-.56.36-.99.88-1.3,1.58-.31.69-.46,1.55-.46,2.56,0,1.5.34,2.65,1.02,3.46.68.81,1.59,1.21,2.73,1.21ZM464.93,106.04c-.12.17-.26.26-.42.29-.17.02-.33,0-.48-.08s-.26-.19-.33-.34c-.07-.15-.05-.32.05-.52l2.1-4.08c.12-.23.27-.38.45-.45.18-.07.37-.08.56-.04.19.04.35.13.49.26s.21.29.24.47-.03.38-.16.58l-2.5,3.9Z"/>
        <path class="cls-1" d="M473.96,120.12c-.33,0-.58-.09-.75-.27-.17-.18-.25-.44-.25-.78v-10.42c0-.33.08-.59.25-.76s.41-.26.73-.26.56.09.74.26c.18.17.26.43.26.76v2.15l-.27-.3c.35-.97.92-1.7,1.71-2.19.79-.49,1.7-.74,2.74-.74.97,0,1.77.17,2.41.53.64.35,1.12.88,1.44,1.59.32.71.48,1.6.48,2.69v6.7c0,.33-.09.59-.26.78-.17.18-.42.27-.74.27-.33,0-.59-.09-.76-.27-.17-.18-.26-.44-.26-.78v-6.58c0-1.13-.22-1.96-.66-2.49-.44-.53-1.15-.79-2.11-.79-1.12,0-2,.35-2.66,1.04-.66.69-.99,1.61-.99,2.76v6.05c0,.7-.34,1.05-1.02,1.05Z"/>
      </g>
      <g>
        <path class="cls-1" d="M742.95,90.12c-.33,0-.59-.1-.76-.29s-.26-.45-.26-.79v-15.67c0-.35.09-.61.28-.79.18-.17.44-.26.77-.26h5.92c1.88,0,3.33.46,4.35,1.39s1.52,2.23,1.52,3.91-.51,2.97-1.52,3.9-2.47,1.4-4.35,1.4h-4.92v6.12c0,.33-.08.6-.25.79s-.42.29-.77.29ZM743.98,81.19h4.67c1.35,0,2.37-.3,3.06-.91s1.04-1.5,1.04-2.66-.35-2.08-1.04-2.69-1.71-.91-3.06-.91h-4.67v7.17Z"/>
        <path class="cls-1" d="M761.63,90.17c-.98,0-1.8-.18-2.44-.54-.64-.36-1.12-.9-1.45-1.61s-.49-1.61-.49-2.67v-6.7c0-.35.09-.61.26-.78.18-.17.42-.25.74-.25.33,0,.59.08.76.25.18.17.26.42.26.78v6.67c0,1.07.22,1.86.66,2.39.44.52,1.14.79,2.09.79,1.03,0,1.88-.35,2.53-1.05.65-.7.97-1.62.97-2.75v-6.05c0-.35.09-.61.26-.78.17-.17.43-.25.76-.25.32,0,.56.08.74.25.17.17.26.42.26.78v10.42c0,.7-.33,1.05-.98,1.05-.32,0-.56-.09-.74-.27-.17-.18-.26-.44-.26-.78v-2.28l.33.35c-.33.98-.88,1.73-1.64,2.25-.76.52-1.64.77-2.64.77Z"/>
        <path class="cls-1" d="M777.5,90.17c-1.1,0-2.05-.28-2.84-.85-.79-.57-1.32-1.33-1.59-2.28l.28-.27v2.3c0,.33-.09.59-.26.78-.17.18-.42.27-.74.27-.33,0-.58-.09-.75-.27-.17-.18-.25-.44-.25-.78v-15.9c0-.33.08-.59.25-.76.17-.18.42-.26.75-.26.32,0,.57.09.75.26.18.17.27.43.27.76v7.45h-.3c.28-.93.82-1.67,1.6-2.22.78-.55,1.72-.83,2.82-.83s2.05.25,2.85.76,1.42,1.23,1.86,2.17.66,2.06.66,3.36-.22,2.4-.66,3.34-1.07,1.67-1.88,2.19-1.75.77-2.84.77ZM777.08,88.54c.77,0,1.43-.18,1.99-.55.56-.37.99-.9,1.3-1.6.31-.7.46-1.54.46-2.53,0-1.52-.34-2.67-1.01-3.47-.67-.8-1.59-1.2-2.74-1.2-.75,0-1.41.18-1.97.54-.57.36-1,.88-1.31,1.58-.31.69-.46,1.55-.46,2.56,0,1.5.34,2.65,1.03,3.46.68.81,1.59,1.21,2.72,1.21Z"/>
        <path class="cls-1" d="M789.63,90.17c-1.2,0-2.12-.37-2.75-1.1s-.95-1.78-.95-3.15v-12.75c0-.33.08-.59.25-.76.17-.18.42-.26.75-.26s.57.09.75.26c.18.17.28.43.28.76v12.6c0,.9.18,1.57.54,2.01s.89.66,1.59.66c.15,0,.28,0,.4-.03.12-.02.23-.02.35-.02.18-.02.31.02.39.12.08.1.11.3.11.6s-.07.53-.2.67c-.13.15-.35.25-.65.3-.13.02-.28.03-.43.05-.15.02-.29.02-.42.02Z"/>
        <path class="cls-1" d="M794.33,74.87c-.42,0-.74-.11-.98-.34-.23-.23-.35-.53-.35-.91s.12-.7.35-.91.56-.31.98-.31.76.1.99.31.34.51.34.91-.11.69-.34.91c-.22.22-.55.34-.99.34ZM794.33,90.07c-.33,0-.58-.1-.75-.29-.17-.19-.25-.46-.25-.81v-10.23c0-.35.08-.62.25-.8.17-.18.42-.28.75-.28.32,0,.57.09.75.28.18.18.27.45.27.8v10.23c0,.35-.09.62-.26.81-.18.19-.43.29-.76.29Z"/>
        <path class="cls-1" d="M804.28,90.17c-1.22,0-2.27-.27-3.15-.8-.88-.53-1.56-1.28-2.04-2.24-.47-.96-.71-2.07-.71-3.34,0-.97.13-1.83.4-2.6s.66-1.42,1.18-1.96c.52-.54,1.14-.95,1.86-1.24.72-.28,1.55-.42,2.46-.42.6,0,1.23.09,1.88.28.65.18,1.24.5,1.78.95.17.12.28.26.33.43.05.17.05.33,0,.49s-.13.29-.25.4c-.12.11-.26.17-.44.19-.17.02-.35-.04-.54-.17-.43-.33-.88-.57-1.32-.7-.45-.13-.88-.2-1.3-.2-.65,0-1.22.1-1.7.31-.48.21-.89.5-1.23.89-.33.38-.59.86-.76,1.43-.17.57-.26,1.22-.26,1.97,0,1.45.34,2.6,1.02,3.44s1.66,1.26,2.92,1.26c.42,0,.85-.07,1.29-.2.44-.13.89-.37,1.34-.7.18-.13.36-.19.53-.17.17.02.31.08.42.19s.2.25.24.41c.04.17.04.33-.01.49-.05.16-.16.3-.33.41-.53.43-1.12.75-1.75.94-.63.19-1.25.29-1.85.29Z"/>
        <path class="cls-1" d="M814.43,90.17c-.83,0-1.58-.16-2.24-.49s-1.18-.77-1.56-1.34c-.38-.57-.57-1.2-.57-1.9,0-.9.23-1.61.69-2.12.46-.52,1.22-.88,2.27-1.1s2.5-.33,4.34-.33h1.12v1.33h-1.1c-1.35,0-2.41.06-3.19.19-.77.12-1.32.34-1.62.64-.31.3-.46.73-.46,1.28,0,.68.24,1.24.71,1.67.48.43,1.12.65,1.94.65.67,0,1.25-.16,1.76-.48.51-.32.91-.75,1.2-1.3.29-.55.44-1.18.44-1.9v-2.85c0-1.03-.21-1.78-.62-2.24-.42-.46-1.1-.69-2.05-.69-.58,0-1.17.08-1.75.22-.58.15-1.2.39-1.85.73-.23.12-.43.15-.6.11-.17-.04-.3-.13-.4-.26-.1-.13-.16-.29-.17-.46-.02-.18.02-.35.11-.51s.24-.3.44-.4c.73-.37,1.46-.63,2.18-.8.72-.17,1.4-.25,2.05-.25,1.05,0,1.92.17,2.6.51s1.19.86,1.53,1.55c.33.69.5,1.58.5,2.66v6.78c0,.33-.08.59-.24.78-.16.18-.39.27-.69.27-.32,0-.56-.09-.73-.27-.17-.18-.25-.44-.25-.78v-1.95h.23c-.13.63-.39,1.17-.76,1.62s-.84.8-1.39,1.05-1.17.38-1.85.38Z"/>
        <path class="cls-1" d="M829,90.17c-1.22,0-2.27-.27-3.15-.8-.88-.53-1.56-1.28-2.04-2.24-.47-.96-.71-2.07-.71-3.34,0-.97.13-1.83.4-2.6s.66-1.42,1.18-1.96c.52-.54,1.14-.95,1.86-1.24.72-.28,1.55-.42,2.46-.42.6,0,1.23.09,1.88.28.65.18,1.24.5,1.78.95.17.12.28.26.33.43.05.17.05.33,0,.49s-.13.29-.25.4c-.12.11-.26.17-.44.19-.17.02-.35-.04-.54-.17-.43-.33-.88-.57-1.32-.7-.45-.13-.88-.2-1.3-.2-.65,0-1.22.1-1.7.31-.48.21-.89.5-1.23.89-.33.38-.59.86-.76,1.43-.17.57-.26,1.22-.26,1.97,0,1.45.34,2.6,1.02,3.44s1.66,1.26,2.92,1.26c.42,0,.85-.07,1.29-.2.44-.13.89-.37,1.34-.7.18-.13.36-.19.53-.17.17.02.31.08.42.19s.2.25.24.41c.04.17.04.33-.01.49-.05.16-.16.3-.33.41-.53.43-1.12.75-1.75.94-.63.19-1.25.29-1.85.29Z"/>
        <path class="cls-1" d="M836.43,74.87c-.42,0-.74-.11-.97-.34-.23-.23-.35-.53-.35-.91s.12-.7.35-.91.56-.31.97-.31.76.1.99.31c.22.21.34.51.34.91s-.11.69-.34.91c-.23.22-.55.34-.99.34ZM836.43,90.07c-.33,0-.58-.1-.75-.29-.17-.19-.25-.46-.25-.81v-10.23c0-.35.08-.62.25-.8.17-.18.42-.28.75-.28s.57.09.75.28.28.45.28.8v10.23c0,.35-.09.62-.26.81s-.43.29-.76.29Z"/>
        <path class="cls-1" d="M846.28,90.17c-1.18,0-2.21-.26-3.08-.77-.87-.52-1.54-1.25-2.01-2.19s-.71-2.05-.71-3.34c0-.97.13-1.84.4-2.61s.66-1.44,1.17-1.99,1.13-.97,1.84-1.26c.71-.29,1.5-.44,2.39-.44,1.18,0,2.21.26,3.07.78.87.52,1.54,1.25,2.01,2.19.48.94.71,2.05.71,3.34,0,.97-.13,1.83-.4,2.6s-.66,1.43-1.17,1.99-1.13.98-1.84,1.27c-.71.29-1.5.44-2.39.44ZM846.28,88.54c.75,0,1.41-.18,1.97-.55.57-.37,1-.9,1.31-1.6s.46-1.54.46-2.53c0-1.52-.34-2.67-1.01-3.47s-1.59-1.2-2.74-1.2c-.77,0-1.43.18-1.99.54-.56.36-.99.88-1.3,1.58-.31.69-.46,1.55-.46,2.56,0,1.5.34,2.65,1.02,3.46s1.59,1.21,2.73,1.21ZM847.1,76.04c-.12.17-.26.26-.42.29-.17.02-.33,0-.47-.08-.15-.08-.26-.19-.33-.34-.07-.15-.05-.32.05-.52l2.1-4.08c.12-.23.27-.38.45-.45.18-.07.37-.08.56-.04s.35.13.49.26.21.29.24.47c.02.18-.03.38-.16.58l-2.5,3.9Z"/>
        <path class="cls-1" d="M856.13,90.12c-.33,0-.58-.09-.75-.27-.17-.18-.25-.44-.25-.78v-10.42c0-.33.08-.59.25-.76.17-.17.41-.26.72-.26s.56.09.74.26c.18.17.26.43.26.76v2.15l-.27-.3c.35-.97.92-1.7,1.71-2.19.79-.49,1.7-.74,2.74-.74.97,0,1.77.17,2.41.53.64.35,1.12.88,1.44,1.59.32.71.47,1.6.47,2.69v6.7c0,.33-.09.59-.26.78-.17.18-.42.27-.74.27-.33,0-.59-.09-.76-.27-.17-.18-.26-.44-.26-.78v-6.58c0-1.13-.22-1.96-.66-2.49s-1.15-.79-2.11-.79c-1.12,0-2,.35-2.66,1.04-.66.69-.99,1.61-.99,2.76v6.05c0,.7-.34,1.05-1.02,1.05Z"/>
      </g>
      <g>
        <path class="cls-1" d="M558.13,89.94c-.37,0-.65-.1-.84-.29-.19-.19-.29-.47-.29-.84v-15.38c0-.37.1-.65.29-.84s.47-.29.84-.29h4.83c2.85,0,5.05.75,6.6,2.25,1.55,1.5,2.32,3.68,2.32,6.55,0,1.43-.2,2.7-.59,3.79s-.97,2.01-1.74,2.76c-.77.75-1.7,1.32-2.8,1.7-1.1.38-2.37.58-3.8.58h-4.83ZM559.06,88.19h3.75c1.17,0,2.18-.15,3.04-.45s1.58-.74,2.15-1.33c.57-.58,1-1.32,1.29-2.21s.42-1.92.42-3.09c0-2.35-.58-4.11-1.72-5.29-1.15-1.17-2.88-1.76-5.17-1.76h-3.75v14.12Z"/>
        <path class="cls-1" d="M580.76,90.16c-1.28,0-2.39-.25-3.31-.76-.92-.51-1.64-1.23-2.15-2.16-.51-.93-.76-2.05-.76-3.35s.25-2.37.75-3.31,1.19-1.68,2.06-2.21c.88-.53,1.89-.8,3.04-.8.82,0,1.55.14,2.2.41.65.28,1.2.67,1.66,1.19.46.52.81,1.14,1.05,1.88.24.73.36,1.56.36,2.48,0,.27-.08.46-.23.59-.15.12-.37.19-.65.19h-8.7v-1.32h8.22l-.4.32c0-.9-.13-1.66-.4-2.29s-.65-1.1-1.16-1.44c-.51-.33-1.15-.5-1.91-.5-.85,0-1.57.2-2.16.59s-1.04.93-1.34,1.62c-.3.69-.45,1.5-.45,2.41v.15c0,1.53.37,2.7,1.11,3.5.74.8,1.8,1.2,3.16,1.2.57,0,1.13-.07,1.69-.22s1.1-.4,1.64-.75c.23-.15.45-.22.64-.21.19,0,.35.07.46.18.12.11.2.24.24.4.04.16.02.33-.05.51-.07.18-.22.34-.44.47-.55.4-1.2.71-1.95.93-.75.22-1.49.32-2.23.32Z"/>
        <path class="cls-1" d="M592.68,90.16c-.75,0-1.5-.09-2.26-.27-.76-.18-1.46-.5-2.11-.95-.17-.12-.28-.25-.35-.41-.07-.16-.09-.32-.06-.48.02-.16.09-.3.2-.41.11-.12.24-.19.4-.21.16-.02.34.01.54.11.65.4,1.28.68,1.89.84s1.21.24,1.81.24c.95,0,1.67-.17,2.15-.52.48-.35.72-.83.72-1.43,0-.47-.16-.84-.47-1.11-.32-.27-.82-.49-1.5-.64l-2.28-.5c-1.05-.22-1.83-.59-2.34-1.12-.51-.53-.76-1.22-.76-2.07,0-.75.2-1.4.59-1.94.39-.54.95-.96,1.66-1.26s1.55-.45,2.5-.45c.73,0,1.43.1,2.09.29.66.19,1.25.5,1.79.91.17.12.28.25.34.41.06.16.07.32.02.48s-.12.29-.24.4c-.12.11-.26.17-.42.19-.17.02-.34-.03-.53-.15-.5-.33-1.01-.58-1.52-.74-.52-.16-1.03-.24-1.53-.24-.93,0-1.64.18-2.12.55-.48.37-.72.85-.72,1.45,0,.47.15.85.45,1.15.3.3.77.52,1.4.65l2.28.48c1.08.23,1.9.6,2.44,1.11.54.51.81,1.2.81,2.06,0,1.1-.44,1.97-1.33,2.62-.88.65-2.06.97-3.53.97Z"/>
        <path class="cls-1" d="M604.43,90.16c-.83,0-1.58-.16-2.24-.49s-1.18-.77-1.56-1.34c-.38-.57-.58-1.2-.58-1.9,0-.9.23-1.61.69-2.12s1.22-.88,2.28-1.1c1.06-.22,2.5-.33,4.34-.33h1.12v1.33h-1.1c-1.35,0-2.41.06-3.19.19s-1.32.34-1.62.64c-.31.3-.46.73-.46,1.28,0,.68.24,1.24.71,1.67.47.43,1.12.65,1.94.65.67,0,1.25-.16,1.76-.48.51-.32.91-.75,1.2-1.3.29-.55.44-1.18.44-1.9v-2.85c0-1.03-.21-1.78-.62-2.24-.42-.46-1.1-.69-2.05-.69-.58,0-1.17.08-1.75.22-.58.15-1.2.39-1.85.73-.23.12-.43.15-.6.11-.17-.04-.3-.13-.4-.26-.1-.13-.16-.29-.17-.46-.02-.18.02-.35.11-.51s.24-.3.44-.4c.73-.37,1.46-.63,2.17-.8.72-.17,1.4-.25,2.05-.25,1.05,0,1.92.17,2.6.51.68.34,1.19.86,1.52,1.55.33.69.5,1.58.5,2.66v6.78c0,.33-.08.59-.24.78-.16.18-.39.27-.69.27-.32,0-.56-.09-.72-.27-.17-.18-.25-.44-.25-.78v-1.95h.22c-.13.63-.39,1.17-.76,1.62s-.84.8-1.39,1.05c-.55.25-1.17.38-1.85.38Z"/>
        <path class="cls-1" d="M614.88,90.12c-.33,0-.59-.09-.76-.27-.17-.18-.26-.44-.26-.78v-10.42c0-.33.08-.59.25-.76.17-.17.41-.26.73-.26s.56.09.74.26.26.43.26.76v2.02h-.25c.27-.98.77-1.74,1.52-2.27s1.68-.82,2.78-.85c.25-.02.45.04.6.16.15.12.23.34.25.64.02.28-.05.51-.2.67-.15.17-.38.27-.7.3l-.4.05c-1.13.1-2,.46-2.61,1.09s-.91,1.48-.91,2.56v6.05c0,.33-.09.59-.26.78-.17.18-.43.27-.76.27Z"/>
        <path class="cls-1" d="M623.83,90.12c-.33,0-.59-.09-.76-.27-.18-.18-.26-.44-.26-.78v-10.42c0-.33.08-.59.25-.76.17-.17.41-.26.72-.26s.56.09.74.26c.18.17.26.43.26.76v2.02h-.25c.27-.98.78-1.74,1.53-2.27s1.67-.82,2.77-.85c.25-.02.45.04.6.16.15.12.23.34.25.64.02.28-.05.51-.2.67s-.38.27-.7.3l-.4.05c-1.13.1-2,.46-2.61,1.09s-.91,1.48-.91,2.56v6.05c0,.33-.09.59-.26.78-.17.18-.43.27-.76.27Z"/>
        <path class="cls-1" d="M636.66,90.16c-1.18,0-2.21-.26-3.08-.77s-1.54-1.25-2.01-2.19c-.47-.94-.71-2.05-.71-3.34,0-.97.13-1.84.4-2.61s.66-1.44,1.18-1.99c.52-.55,1.13-.97,1.84-1.26.71-.29,1.5-.44,2.39-.44,1.18,0,2.21.26,3.08.78.87.52,1.54,1.25,2.01,2.19.47.94.71,2.05.71,3.34,0,.97-.13,1.83-.4,2.6-.27.77-.66,1.43-1.18,1.99s-1.13.98-1.84,1.27c-.71.29-1.5.44-2.39.44ZM636.66,88.54c.75,0,1.41-.18,1.97-.55.57-.37,1-.9,1.31-1.6s.46-1.54.46-2.53c0-1.52-.34-2.67-1.01-3.47s-1.59-1.2-2.74-1.2c-.77,0-1.43.18-1.99.54-.56.36-.99.88-1.3,1.58-.31.69-.46,1.55-.46,2.56,0,1.5.34,2.65,1.03,3.46.68.81,1.59,1.21,2.72,1.21Z"/>
        <path class="cls-1" d="M649.21,90.16c-1.2,0-2.12-.37-2.75-1.1s-.95-1.78-.95-3.15v-12.75c0-.33.08-.59.25-.76.17-.18.42-.26.75-.26s.57.09.75.26c.18.17.28.43.28.76v12.6c0,.9.18,1.57.54,2.01s.89.66,1.59.66c.15,0,.28,0,.4-.03.12-.02.23-.02.35-.02.18-.02.31.02.39.12.08.1.11.3.11.6s-.07.53-.2.67c-.13.15-.35.25-.65.3-.13.02-.28.03-.43.05-.15.02-.29.02-.42.02Z"/>
        <path class="cls-1" d="M656.61,90.16c-1.2,0-2.12-.37-2.75-1.1-.63-.73-.95-1.78-.95-3.15v-12.75c0-.33.08-.59.25-.76.17-.18.42-.26.75-.26.32,0,.57.09.75.26.18.17.27.43.27.76v12.6c0,.9.18,1.57.54,2.01s.89.66,1.59.66c.15,0,.28,0,.4-.03.12-.02.23-.02.35-.02.18-.02.31.02.39.12.08.1.11.3.11.6s-.07.53-.2.67c-.13.15-.35.25-.65.3-.13.02-.28.03-.42.05-.15.02-.29.02-.42.02Z"/>
        <path class="cls-1" d="M665.23,90.16c-1.18,0-2.21-.26-3.08-.77s-1.54-1.25-2.01-2.19c-.47-.94-.71-2.05-.71-3.34,0-.97.13-1.84.4-2.61s.66-1.44,1.18-1.99c.52-.55,1.13-.97,1.84-1.26.71-.29,1.5-.44,2.39-.44,1.18,0,2.21.26,3.08.78.87.52,1.54,1.25,2.01,2.19.47.94.71,2.05.71,3.34,0,.97-.13,1.83-.4,2.6-.27.77-.66,1.43-1.18,1.99s-1.13.98-1.84,1.27c-.71.29-1.5.44-2.39.44ZM665.23,88.54c.75,0,1.41-.18,1.97-.55.57-.37,1-.9,1.31-1.6s.46-1.54.46-2.53c0-1.52-.34-2.67-1.01-3.47s-1.59-1.2-2.74-1.2c-.77,0-1.43.18-1.99.54-.56.36-.99.88-1.3,1.58-.31.69-.46,1.55-.46,2.56,0,1.5.34,2.65,1.03,3.46.68.81,1.59,1.21,2.72,1.21Z"/>
      </g>
      <g>
        <path class="cls-1" d="M951.11,90.12c-.27,0-.48-.06-.64-.19s-.25-.29-.27-.5c-.03-.21.02-.45.14-.71l6.88-15.65c.15-.33.33-.57.54-.71.21-.14.44-.21.69-.21s.48.07.69.21c.21.14.38.38.51.71l6.9,15.65c.13.27.19.51.16.72-.03.22-.11.38-.26.5-.15.12-.36.17-.62.17-.3,0-.54-.08-.73-.24s-.33-.39-.45-.69l-1.85-4.28,1,.53h-10.75l1.03-.53-1.83,4.28c-.15.32-.31.55-.47.7-.17.15-.38.22-.65.22ZM958.41,74.72l-4.02,9.47-.6-.47h9.25l-.55.47-4.03-9.47h-.05Z"/>
        <path class="cls-1" d="M970.44,90.12c-.33,0-.58-.09-.75-.27-.17-.18-.25-.44-.25-.78v-10.42c0-.33.08-.59.25-.76.17-.17.41-.26.73-.26s.56.09.74.26.26.43.26.76v2.15l-.28-.3c.35-.97.92-1.7,1.71-2.19.79-.49,1.7-.74,2.74-.74.97,0,1.77.17,2.41.53.64.35,1.12.88,1.44,1.59.32.71.48,1.6.48,2.69v6.7c0,.33-.09.59-.26.78-.17.18-.42.27-.74.27-.33,0-.59-.09-.76-.27-.17-.18-.26-.44-.26-.78v-6.58c0-1.13-.22-1.96-.66-2.49-.44-.53-1.15-.79-2.11-.79-1.12,0-2,.35-2.66,1.04s-.99,1.61-.99,2.76v6.05c0,.7-.34,1.05-1.03,1.05Z"/>
        <path class="cls-1" d="M987.46,90.16c-.83,0-1.58-.16-2.24-.49s-1.18-.77-1.56-1.34c-.38-.57-.57-1.2-.57-1.9,0-.9.23-1.61.69-2.12.46-.52,1.22-.88,2.27-1.1s2.5-.33,4.34-.33h1.12v1.33h-1.1c-1.35,0-2.41.06-3.19.19-.77.12-1.32.34-1.62.64-.31.3-.46.73-.46,1.28,0,.68.24,1.24.71,1.67.48.43,1.12.65,1.94.65.67,0,1.25-.16,1.76-.48.51-.32.91-.75,1.2-1.3.29-.55.44-1.18.44-1.9v-2.85c0-1.03-.21-1.78-.62-2.24-.42-.46-1.1-.69-2.05-.69-.58,0-1.17.08-1.75.22-.58.15-1.2.39-1.85.73-.23.12-.43.15-.6.11-.17-.04-.3-.13-.4-.26-.1-.13-.16-.29-.17-.46-.02-.18.02-.35.11-.51s.24-.3.44-.4c.73-.37,1.46-.63,2.18-.8.72-.17,1.4-.25,2.05-.25,1.05,0,1.92.17,2.6.51s1.19.86,1.53,1.55c.33.69.5,1.58.5,2.66v6.78c0,.33-.08.59-.24.78-.16.18-.39.27-.69.27-.32,0-.56-.09-.73-.27-.17-.18-.25-.44-.25-.78v-1.95h.23c-.13.63-.39,1.17-.76,1.62s-.84.8-1.39,1.05-1.17.38-1.85.38ZM989.36,76.04c-.12.17-.26.26-.42.29-.17.02-.33,0-.47-.08-.15-.08-.26-.19-.33-.34-.07-.15-.05-.32.05-.52l2.1-4.08c.12-.23.27-.38.45-.45.18-.07.37-.08.56-.04s.35.13.49.26c.13.13.21.29.24.47.02.18-.03.38-.16.58l-2.5,3.9Z"/>
        <path class="cls-1" d="M1000.59,90.16c-1.2,0-2.12-.37-2.75-1.1-.63-.73-.95-1.78-.95-3.15v-12.75c0-.33.08-.59.25-.76.17-.18.42-.26.75-.26.32,0,.57.09.75.26.18.17.27.43.27.76v12.6c0,.9.18,1.57.54,2.01s.89.66,1.59.66c.15,0,.28,0,.4-.03.12-.02.23-.02.35-.02.18-.02.31.02.39.12.08.1.11.3.11.6s-.07.53-.2.67c-.13.15-.35.25-.65.3-.13.02-.28.03-.42.05-.15.02-.29.02-.42.02Z"/>
        <path class="cls-1" d="M1005.29,74.87c-.42,0-.74-.11-.97-.34-.23-.23-.35-.53-.35-.91s.12-.7.35-.91.56-.31.97-.31.76.1.99.31c.22.21.34.51.34.91s-.11.69-.34.91c-.23.22-.55.34-.99.34ZM1005.29,90.07c-.33,0-.58-.1-.75-.29-.17-.19-.25-.46-.25-.81v-10.23c0-.35.08-.62.25-.8.17-.18.42-.28.75-.28s.57.09.75.28.28.45.28.8v10.23c0,.35-.09.62-.26.81s-.43.29-.76.29Z"/>
        <path class="cls-1" d="M1014.19,90.16c-.75,0-1.5-.09-2.26-.27-.76-.18-1.46-.5-2.11-.95-.17-.12-.28-.25-.35-.41s-.09-.32-.06-.48c.03-.16.09-.3.2-.41s.24-.19.4-.21c.16-.02.34.01.54.11.65.4,1.28.68,1.89.84s1.21.24,1.81.24c.95,0,1.67-.17,2.15-.52.48-.35.72-.83.72-1.43,0-.47-.16-.84-.47-1.11-.32-.27-.82-.49-1.5-.64l-2.28-.5c-1.05-.22-1.83-.59-2.34-1.12-.51-.53-.76-1.22-.76-2.07,0-.75.2-1.4.59-1.94.39-.54.95-.96,1.66-1.26.72-.3,1.55-.45,2.5-.45.73,0,1.43.1,2.09.29.66.19,1.25.5,1.79.91.17.12.28.25.34.41.06.16.07.32.03.48-.04.16-.12.29-.24.4-.12.11-.26.17-.43.19-.17.02-.34-.03-.52-.15-.5-.33-1.01-.58-1.53-.74-.52-.16-1.02-.24-1.52-.24-.93,0-1.64.18-2.12.55-.48.37-.73.85-.73,1.45,0,.47.15.85.45,1.15s.77.52,1.4.65l2.27.48c1.08.23,1.9.6,2.44,1.11.54.51.81,1.2.81,2.06,0,1.1-.44,1.97-1.33,2.62-.88.65-2.06.97-3.52.97Z"/>
        <path class="cls-1" d="M1023.11,74.87c-.42,0-.74-.11-.98-.34-.23-.23-.35-.53-.35-.91s.12-.7.35-.91.56-.31.98-.31.76.1.99.31.34.51.34.91-.11.69-.34.91c-.22.22-.55.34-.99.34ZM1023.11,90.07c-.33,0-.58-.1-.75-.29-.17-.19-.25-.46-.25-.81v-10.23c0-.35.08-.62.25-.8.17-.18.42-.28.75-.28.32,0,.57.09.75.28.18.18.27.45.27.8v10.23c0,.35-.09.62-.26.81-.18.19-.43.29-.76.29Z"/>
        <path class="cls-1" d="M1032.01,90.16c-.75,0-1.5-.09-2.26-.27-.76-.18-1.46-.5-2.11-.95-.17-.12-.28-.25-.35-.41-.07-.16-.09-.32-.06-.48.02-.16.09-.3.2-.41.11-.12.24-.19.4-.21.16-.02.34.01.54.11.65.4,1.28.68,1.89.84s1.21.24,1.81.24c.95,0,1.67-.17,2.15-.52.48-.35.72-.83.72-1.43,0-.47-.16-.84-.47-1.11-.32-.27-.82-.49-1.5-.64l-2.28-.5c-1.05-.22-1.83-.59-2.34-1.12-.51-.53-.76-1.22-.76-2.07,0-.75.2-1.4.59-1.94.39-.54.95-.96,1.66-1.26s1.55-.45,2.5-.45c.73,0,1.43.1,2.09.29.66.19,1.25.5,1.79.91.17.12.28.25.34.41.06.16.07.32.02.48s-.12.29-.24.4c-.12.11-.26.17-.42.19-.17.02-.34-.03-.53-.15-.5-.33-1.01-.58-1.52-.74-.52-.16-1.03-.24-1.53-.24-.93,0-1.64.18-2.12.55-.48.37-.72.85-.72,1.45,0,.47.15.85.45,1.15.3.3.77.52,1.4.65l2.28.48c1.08.23,1.9.6,2.44,1.11.54.51.81,1.2.81,2.06,0,1.1-.44,1.97-1.33,2.62-.88.65-2.06.97-3.53.97Z"/>
        <path class="cls-1" d="M903.55,124.62c-.33,0-.58-.09-.75-.26-.17-.17-.25-.43-.25-.76v-14.95c0-.33.08-.59.25-.76.17-.17.41-.26.73-.26.33,0,.59.09.76.26.17.17.26.43.26.76v2.38l-.27-.35c.27-.95.8-1.7,1.59-2.26.79-.56,1.74-.84,2.84-.84s2.03.25,2.84.76c.81.51,1.43,1.23,1.88,2.17.44.94.66,2.06.66,3.36s-.22,2.4-.66,3.34c-.44.94-1.06,1.67-1.86,2.19-.8.52-1.75.77-2.85.77s-2.04-.28-2.83-.84-1.32-1.3-1.6-2.24h.3v6.5c0,.33-.09.59-.28.76-.18.18-.43.26-.75.26ZM908.28,118.54c.77,0,1.43-.18,1.99-.55.56-.37.99-.9,1.3-1.6s.46-1.54.46-2.53c0-1.52-.34-2.67-1.01-3.47s-1.59-1.2-2.74-1.2c-.75,0-1.41.18-1.98.54-.57.36-1,.88-1.31,1.58-.31.69-.46,1.55-.46,2.56,0,1.5.34,2.65,1.02,3.46s1.59,1.21,2.73,1.21Z"/>
        <path class="cls-1" d="M922.18,120.16c-1.18,0-2.21-.26-3.08-.77s-1.54-1.25-2.01-2.19c-.47-.94-.71-2.05-.71-3.34,0-.97.13-1.84.4-2.61s.66-1.44,1.18-1.99c.52-.55,1.13-.97,1.84-1.26.71-.29,1.5-.44,2.39-.44,1.18,0,2.21.26,3.08.78.87.52,1.54,1.25,2.01,2.19.47.94.71,2.05.71,3.34,0,.97-.13,1.83-.4,2.6-.27.77-.66,1.43-1.18,1.99s-1.13.98-1.84,1.27c-.71.29-1.5.44-2.39.44ZM922.18,118.54c.75,0,1.41-.18,1.97-.55.57-.37,1-.9,1.31-1.6s.46-1.54.46-2.53c0-1.52-.34-2.67-1.01-3.47s-1.59-1.2-2.74-1.2c-.77,0-1.43.18-1.99.54-.56.36-.99.88-1.3,1.58-.31.69-.46,1.55-.46,2.56,0,1.5.34,2.65,1.03,3.46.68.81,1.59,1.21,2.72,1.21Z"/>
        <path class="cls-1" d="M935.13,120.16c-.75,0-1.5-.09-2.26-.27-.76-.18-1.46-.5-2.11-.95-.17-.12-.28-.25-.35-.41s-.09-.32-.06-.48c.03-.16.09-.3.2-.41s.24-.19.4-.21c.16-.02.34.01.54.11.65.4,1.28.68,1.89.84s1.21.24,1.81.24c.95,0,1.67-.17,2.15-.52.48-.35.72-.83.72-1.43,0-.47-.16-.84-.47-1.11-.32-.27-.82-.49-1.5-.64l-2.28-.5c-1.05-.22-1.83-.59-2.34-1.12-.51-.53-.76-1.22-.76-2.07,0-.75.2-1.4.59-1.94.39-.54.95-.96,1.66-1.26.72-.3,1.55-.45,2.5-.45.73,0,1.43.1,2.09.29.66.19,1.25.5,1.79.91.17.12.28.25.34.41.06.16.07.32.03.48-.04.16-.12.29-.24.4-.12.11-.26.17-.43.19-.17.02-.34-.03-.52-.15-.5-.33-1.01-.58-1.53-.74-.52-.16-1.02-.24-1.52-.24-.93,0-1.64.18-2.12.55-.48.37-.73.85-.73,1.45,0,.47.15.85.45,1.15s.77.52,1.4.65l2.27.48c1.08.23,1.9.6,2.44,1.11.54.51.81,1.2.81,2.06,0,1.1-.44,1.97-1.33,2.62-.88.65-2.06.97-3.52.97Z"/>
        <path class="cls-1" d="M947.8,120.16c-.95,0-1.75-.17-2.39-.51-.64-.34-1.12-.84-1.44-1.5-.32-.66-.48-1.46-.48-2.41v-6.38h-1.67c-.28,0-.5-.07-.65-.21-.15-.14-.22-.34-.22-.59s.08-.44.22-.58c.15-.13.37-.2.65-.2h1.67v-2.88c0-.33.09-.59.28-.76.18-.18.43-.26.75-.26s.56.09.74.26c.17.17.26.43.26.76v2.88h3.15c.28,0,.5.07.65.2.15.13.22.33.22.58s-.07.45-.22.59-.37.21-.65.21h-3.15v6.17c0,.95.2,1.67.6,2.16.4.49,1.05.74,1.95.74.32,0,.59-.03.81-.1s.41-.1.56-.1c.15-.02.28.03.38.15s.15.32.15.6c0,.2-.04.38-.11.55-.07.17-.2.28-.39.35-.2.07-.46.13-.79.19-.33.06-.62.09-.89.09Z"/>
        <path class="cls-1" d="M952.03,114.12c-.25,0-.46-.08-.62-.24-.17-.16-.25-.35-.25-.59,0-.25.08-.45.25-.61.17-.16.38-.24.62-.24h5.62c.23,0,.43.08.6.24.17.16.25.36.25.61,0,.23-.08.43-.25.59s-.37.24-.6.24h-5.62Z"/>
        <path class="cls-1" d="M963.03,124.62c-.33,0-.58-.09-.75-.26-.17-.17-.25-.43-.25-.76v-14.95c0-.33.08-.59.25-.76.17-.17.41-.26.72-.26.33,0,.59.09.76.26s.26.43.26.76v2.38l-.28-.35c.27-.95.8-1.7,1.59-2.26.79-.56,1.74-.84,2.84-.84s2.03.25,2.84.76,1.43,1.23,1.88,2.17.66,2.06.66,3.36-.22,2.4-.66,3.34-1.06,1.67-1.86,2.19-1.75.77-2.85.77-2.04-.28-2.82-.84c-.78-.56-1.32-1.3-1.6-2.24h.3v6.5c0,.33-.09.59-.27.76-.18.18-.43.26-.75.26ZM967.75,118.54c.77,0,1.43-.18,1.99-.55.56-.37.99-.9,1.3-1.6.31-.7.46-1.54.46-2.53,0-1.52-.34-2.67-1.01-3.47-.67-.8-1.59-1.2-2.74-1.2-.75,0-1.41.18-1.97.54-.57.36-1,.88-1.31,1.58-.31.69-.46,1.55-.46,2.56,0,1.5.34,2.65,1.03,3.46.68.81,1.59,1.21,2.72,1.21Z"/>
        <path class="cls-1" d="M980.9,120.16c-.98,0-1.8-.18-2.44-.54-.64-.36-1.12-.9-1.45-1.61s-.49-1.61-.49-2.67v-6.7c0-.35.09-.61.26-.78.18-.17.42-.25.74-.25.33,0,.59.08.76.25.18.17.26.42.26.78v6.67c0,1.07.22,1.86.66,2.39.44.52,1.14.79,2.09.79,1.03,0,1.88-.35,2.53-1.05.65-.7.97-1.62.97-2.75v-6.05c0-.35.09-.61.26-.78.17-.17.43-.25.76-.25.32,0,.56.08.74.25.17.17.26.42.26.78v10.42c0,.7-.33,1.05-.98,1.05-.32,0-.56-.09-.74-.27-.17-.18-.26-.44-.26-.78v-2.28l.33.35c-.33.98-.88,1.73-1.64,2.25-.76.52-1.64.77-2.64.77Z"/>
        <path class="cls-1" d="M996.78,120.16c-1.1,0-2.05-.28-2.84-.85-.79-.57-1.32-1.33-1.59-2.28l.28-.27v2.3c0,.33-.09.59-.26.78-.17.18-.42.27-.74.27-.33,0-.58-.09-.75-.27-.17-.18-.25-.44-.25-.78v-15.9c0-.33.08-.59.25-.76.17-.18.42-.26.75-.26.32,0,.57.09.75.26.18.17.27.43.27.76v7.45h-.3c.28-.93.82-1.67,1.6-2.22.78-.55,1.72-.83,2.82-.83s2.05.25,2.85.76,1.42,1.23,1.86,2.17.66,2.06.66,3.36-.22,2.4-.66,3.34-1.07,1.67-1.88,2.19-1.75.77-2.84.77ZM996.35,118.54c.77,0,1.43-.18,1.99-.55.56-.37.99-.9,1.3-1.6.31-.7.46-1.54.46-2.53,0-1.52-.34-2.67-1.01-3.47-.67-.8-1.59-1.2-2.74-1.2-.75,0-1.41.18-1.97.54-.57.36-1,.88-1.31,1.58-.31.69-.46,1.55-.46,2.56,0,1.5.34,2.65,1.03,3.46.68.81,1.59,1.21,2.72,1.21Z"/>
        <path class="cls-1" d="M1008.9,120.16c-1.2,0-2.12-.37-2.75-1.1s-.95-1.78-.95-3.15v-12.75c0-.33.08-.59.25-.76.17-.18.42-.26.75-.26s.57.09.75.26c.18.17.28.43.28.76v12.6c0,.9.18,1.57.54,2.01s.89.66,1.59.66c.15,0,.28,0,.4-.03.12-.02.23-.02.35-.02.18-.02.31.02.39.12.08.1.11.3.11.6s-.07.53-.2.67c-.13.15-.35.25-.65.3-.13.02-.28.03-.43.05-.15.02-.29.02-.42.02Z"/>
        <path class="cls-1" d="M1013.6,104.87c-.42,0-.74-.11-.98-.34-.23-.23-.35-.53-.35-.91s.12-.7.35-.91.56-.31.98-.31.76.1.99.31.34.51.34.91-.11.69-.34.91c-.22.22-.55.34-.99.34ZM1013.6,120.07c-.33,0-.58-.1-.75-.29-.17-.19-.25-.46-.25-.81v-10.23c0-.35.08-.62.25-.8.17-.18.42-.28.75-.28.32,0,.57.09.75.28.18.18.27.45.27.8v10.23c0,.35-.09.62-.26.81-.18.19-.43.29-.76.29Z"/>
        <path class="cls-1" d="M1023.55,120.16c-1.22,0-2.27-.27-3.15-.8-.88-.53-1.56-1.28-2.04-2.24-.47-.96-.71-2.07-.71-3.34,0-.97.13-1.83.4-2.6s.66-1.42,1.18-1.96c.52-.54,1.14-.95,1.86-1.24.72-.28,1.55-.42,2.46-.42.6,0,1.23.09,1.88.28.65.18,1.24.5,1.78.95.17.12.28.26.33.43.05.17.05.33,0,.49s-.13.29-.25.4c-.12.11-.26.17-.44.19-.17.02-.35-.04-.54-.17-.43-.33-.88-.57-1.32-.7-.45-.13-.88-.2-1.3-.2-.65,0-1.22.1-1.7.31-.48.21-.89.5-1.23.89-.33.38-.59.86-.76,1.43-.17.57-.26,1.22-.26,1.97,0,1.45.34,2.6,1.02,3.44s1.66,1.26,2.92,1.26c.42,0,.85-.07,1.29-.2.44-.13.89-.37,1.34-.7.18-.13.36-.19.53-.17.17.02.31.08.42.19s.2.25.24.41c.04.17.04.33-.01.49-.05.16-.16.3-.33.41-.53.43-1.12.75-1.75.94-.63.19-1.25.29-1.85.29Z"/>
        <path class="cls-1" d="M1033.7,120.16c-.83,0-1.58-.16-2.24-.49s-1.18-.77-1.56-1.34c-.38-.57-.57-1.2-.57-1.9,0-.9.23-1.61.69-2.12.46-.52,1.22-.88,2.27-1.1s2.5-.33,4.34-.33h1.12v1.33h-1.1c-1.35,0-2.41.06-3.19.19-.77.12-1.32.34-1.62.64-.31.3-.46.73-.46,1.28,0,.68.24,1.24.71,1.67.48.43,1.12.65,1.94.65.67,0,1.25-.16,1.76-.48.51-.32.91-.75,1.2-1.3.29-.55.44-1.18.44-1.9v-2.85c0-1.03-.21-1.78-.62-2.24-.42-.46-1.1-.69-2.05-.69-.58,0-1.17.08-1.75.22-.58.15-1.2.39-1.85.73-.23.12-.43.15-.6.11-.17-.04-.3-.13-.4-.26-.1-.13-.16-.29-.17-.46-.02-.18.02-.35.11-.51s.24-.3.44-.4c.73-.37,1.46-.63,2.18-.8.72-.17,1.4-.25,2.05-.25,1.05,0,1.92.17,2.6.51s1.19.86,1.53,1.55c.33.69.5,1.58.5,2.66v6.78c0,.33-.08.59-.24.78-.16.18-.39.27-.69.27-.32,0-.56-.09-.73-.27-.17-.18-.25-.44-.25-.78v-1.95h.23c-.13.63-.39,1.17-.76,1.62s-.84.8-1.39,1.05-1.17.38-1.85.38Z"/>
        <path class="cls-1" d="M1048.28,120.16c-1.22,0-2.27-.27-3.15-.8-.88-.53-1.56-1.28-2.04-2.24-.47-.96-.71-2.07-.71-3.34,0-.97.13-1.83.4-2.6s.66-1.42,1.18-1.96c.52-.54,1.14-.95,1.86-1.24.72-.28,1.55-.42,2.46-.42.6,0,1.23.09,1.88.28.65.18,1.24.5,1.78.95.17.12.28.26.33.43.05.17.05.33,0,.49s-.13.29-.25.4c-.12.11-.26.17-.44.19-.17.02-.35-.04-.54-.17-.43-.33-.88-.57-1.32-.7-.45-.13-.88-.2-1.3-.2-.65,0-1.22.1-1.7.31-.48.21-.89.5-1.23.89-.33.38-.59.86-.76,1.43-.17.57-.26,1.22-.26,1.97,0,1.45.34,2.6,1.02,3.44s1.66,1.26,2.92,1.26c.42,0,.85-.07,1.29-.2.44-.13.89-.37,1.34-.7.18-.13.36-.19.53-.17.17.02.31.08.42.19s.2.25.24.41c.04.17.04.33-.01.49-.05.16-.16.3-.33.41-.53.43-1.12.75-1.75.94-.63.19-1.25.29-1.85.29Z"/>
        <path class="cls-1" d="M1055.7,104.87c-.42,0-.74-.11-.97-.34-.23-.23-.35-.53-.35-.91s.12-.7.35-.91.56-.31.97-.31.76.1.99.31c.22.21.34.51.34.91s-.11.69-.34.91c-.23.22-.55.34-.99.34ZM1055.7,120.07c-.33,0-.58-.1-.75-.29-.17-.19-.25-.46-.25-.81v-10.23c0-.35.08-.62.25-.8.17-.18.42-.28.75-.28s.57.09.75.28.28.45.28.8v10.23c0,.35-.09.62-.26.81s-.43.29-.76.29Z"/>
        <path class="cls-1" d="M1065.55,120.16c-1.18,0-2.21-.26-3.08-.77-.87-.52-1.54-1.25-2.01-2.19s-.71-2.05-.71-3.34c0-.97.13-1.84.4-2.61s.66-1.44,1.17-1.99,1.13-.97,1.84-1.26c.71-.29,1.5-.44,2.39-.44,1.18,0,2.21.26,3.07.78.87.52,1.54,1.25,2.01,2.19.48.94.71,2.05.71,3.34,0,.97-.13,1.83-.4,2.6s-.66,1.43-1.17,1.99-1.13.98-1.84,1.27c-.71.29-1.5.44-2.39.44ZM1065.55,118.54c.75,0,1.41-.18,1.97-.55.57-.37,1-.9,1.31-1.6s.46-1.54.46-2.53c0-1.52-.34-2.67-1.01-3.47s-1.59-1.2-2.74-1.2c-.77,0-1.43.18-1.99.54-.56.36-.99.88-1.3,1.58-.31.69-.46,1.55-.46,2.56,0,1.5.34,2.65,1.02,3.46s1.59,1.21,2.73,1.21ZM1066.38,106.04c-.12.17-.26.26-.42.29-.17.02-.33,0-.47-.08-.15-.08-.26-.19-.33-.34-.07-.15-.05-.32.05-.52l2.1-4.08c.12-.23.27-.38.45-.45.18-.07.37-.08.56-.04s.35.13.49.26.21.29.24.47c.02.18-.03.38-.16.58l-2.5,3.9Z"/>
        <path class="cls-1" d="M1075.4,120.12c-.33,0-.58-.09-.75-.27-.17-.18-.25-.44-.25-.78v-10.42c0-.33.08-.59.25-.76.17-.17.41-.26.72-.26s.56.09.74.26c.18.17.26.43.26.76v2.15l-.27-.3c.35-.97.92-1.7,1.71-2.19.79-.49,1.7-.74,2.74-.74.97,0,1.77.17,2.41.53.64.35,1.12.88,1.44,1.59.32.71.47,1.6.47,2.69v6.7c0,.33-.09.59-.26.78-.17.18-.42.27-.74.27-.33,0-.59-.09-.76-.27-.17-.18-.26-.44-.26-.78v-6.58c0-1.13-.22-1.96-.66-2.49s-1.15-.79-2.11-.79c-1.12,0-2,.35-2.66,1.04-.66.69-.99,1.61-.99,2.76v6.05c0,.7-.34,1.05-1.02,1.05Z"/>
      </g>
      <g>
        <circle class="cls-1" cx="43.25" cy="25" r="25"/>
        <path class="cls-2" d="M39.67,33.92c-.53,0-.94-.14-1.22-.42-.28-.28-.43-.68-.43-1.18s.14-.91.43-1.17c.28-.27.69-.4,1.22-.4h2.53v-11.28h1.82l-3.65,2.23c-.38.23-.74.33-1.06.27-.33-.05-.6-.19-.84-.42-.23-.23-.39-.51-.46-.84-.08-.33-.05-.65.09-.98.13-.33.38-.6.75-.84l3.48-2.1c.35-.22.7-.39,1.06-.52.36-.13.71-.2,1.06-.2.5,0,.9.13,1.19.39.29.26.44.65.44,1.19v13.1h2.27c.52,0,.92.13,1.2.4s.43.66.43,1.17-.14.91-.43,1.19-.68.41-1.2.41h-8.68Z"/>
      </g>
      <g>
        <circle class="cls-1" cx="233.33" cy="25" r="25"/>
        <path class="cls-2" d="M229.29,33.92c-.62,0-1.07-.15-1.36-.44-.29-.29-.44-.72-.44-1.29,0-.37.09-.71.27-1.02.18-.32.43-.64.75-.98l4.7-4.95c.7-.75,1.2-1.42,1.51-2,.31-.58.46-1.17.46-1.75,0-.73-.24-1.29-.71-1.68-.48-.38-1.16-.57-2.06-.57-.48,0-.98.07-1.49.21s-1.04.37-1.59.69c-.37.2-.7.27-1.01.21-.31-.06-.57-.2-.79-.42-.22-.23-.36-.5-.43-.81-.07-.32-.03-.63.1-.95.13-.32.38-.58.75-.8.73-.45,1.53-.79,2.4-1.01s1.73-.34,2.58-.34c1.32,0,2.42.2,3.32.59.9.39,1.58.96,2.05,1.71.47.75.7,1.67.7,2.75,0,.7-.11,1.38-.32,2.05-.22.67-.55,1.34-1.01,2.01-.46.68-1.06,1.4-1.81,2.16l-4.38,4.45v-1h6.77c.53,0,.94.13,1.21.4.27.27.41.66.41,1.17s-.14.91-.41,1.19c-.28.27-.68.41-1.21.41h-8.97Z"/>
      </g>
      <g>
        <circle class="cls-1" cx="423.42" cy="25" r="25"/>
        <path class="cls-2" d="M423,34.2c-.88,0-1.78-.1-2.69-.31-.91-.21-1.7-.5-2.36-.89-.43-.23-.73-.51-.89-.84-.16-.32-.22-.65-.18-.96.04-.32.17-.6.39-.84.22-.24.5-.4.84-.46.34-.07.72,0,1.14.2.65.32,1.27.54,1.85.68s1.17.2,1.75.2c.67,0,1.23-.09,1.68-.26.45-.18.79-.43,1.02-.76.23-.33.35-.75.35-1.25,0-.7-.24-1.23-.73-1.57-.48-.35-1.19-.53-2.12-.53h-1.48c-.55,0-.97-.14-1.26-.41-.29-.28-.44-.65-.44-1.14s.15-.89.44-1.16c.29-.27.71-.41,1.26-.41h1.1c.57,0,1.05-.09,1.44-.26.39-.18.7-.42.92-.74.23-.32.34-.71.34-1.17,0-.67-.23-1.17-.69-1.52-.46-.35-1.12-.52-1.99-.52-.53,0-1.06.06-1.57.19-.52.12-1.08.35-1.68.66-.37.18-.71.24-1.02.18-.32-.07-.58-.22-.79-.45-.21-.23-.34-.5-.4-.81-.06-.31-.02-.62.12-.94.14-.32.4-.57.79-.77.72-.42,1.5-.73,2.34-.95.84-.22,1.7-.32,2.56-.32,1.27,0,2.35.19,3.25.57.9.38,1.59.93,2.08,1.64.48.71.72,1.56.72,2.56,0,.68-.13,1.31-.4,1.88-.27.57-.64,1.05-1.11,1.44s-1.05.67-1.74.84v-.32c1.18.2,2.11.69,2.78,1.47.67.78,1,1.77,1,2.95,0,1.05-.27,1.96-.8,2.74-.53.78-1.3,1.37-2.29,1.79s-2.17.62-3.54.62Z"/>
      </g>
      <g>
        <circle class="cls-1" cx="613.51" cy="25" r="25"/>
        <path class="cls-2" d="M616.26,34.15c-.6,0-1.07-.17-1.41-.5-.34-.33-.51-.82-.51-1.45v-1.42h-5.6c-.62,0-1.11-.14-1.47-.41-.37-.27-.55-.7-.55-1.26,0-.33.08-.67.22-1.02.15-.35.42-.78.8-1.3l6.48-9.43c.28-.42.6-.73.95-.95.35-.22.75-.33,1.2-.33.53,0,.96.16,1.29.49.33.32.49.81.49,1.46v9.7h.92c.55,0,.97.13,1.25.39.28.26.42.64.42,1.14s-.14.86-.41,1.12-.7.4-1.26.4h-.92v1.42c0,.63-.16,1.12-.49,1.45-.33.33-.79.5-1.39.5ZM614.33,27.72v-6.88h.72l-5.33,7.83v-.95h4.6Z"/>
      </g>
      <g>
        <circle class="cls-1" cx="803.59" cy="25" r="25"/>
        <path class="cls-2" d="M803.62,34.2c-.85,0-1.73-.11-2.62-.32-.9-.22-1.73-.54-2.48-.98-.38-.22-.65-.48-.79-.8-.14-.32-.18-.64-.12-.97.06-.33.19-.62.4-.86.21-.24.48-.4.8-.46.32-.07.69,0,1.09.23.58.3,1.18.53,1.79.7.61.17,1.23.25,1.86.25s1.17-.11,1.62-.32c.45-.22.79-.52,1.02-.9s.35-.83.35-1.35c0-.8-.25-1.44-.76-1.93-.51-.48-1.2-.72-2.06-.72-.43,0-.87.07-1.31.21s-.9.39-1.36.74c-.17.13-.38.26-.65.38-.27.12-.55.18-.85.18-.52,0-.9-.12-1.15-.36-.25-.24-.38-.6-.38-1.06v-7.85c0-.55.15-.97.44-1.25.29-.28.7-.42,1.24-.42h8.03c.55,0,.97.14,1.25.41s.42.67.42,1.19-.14.89-.42,1.16c-.28.27-.7.41-1.25.41h-5.97v4.78h-.95c.42-.52.97-.92,1.65-1.2.68-.28,1.43-.42,2.25-.42,1.12,0,2.09.24,2.93.71.83.48,1.48,1.14,1.95,1.99s.7,1.83.7,2.95-.27,2.2-.8,3.09-1.3,1.59-2.3,2.09-2.18.75-3.55.75Z"/>
      </g>
      <g>
        <circle class="cls-1" cx="993.68" cy="25" r="25"/>
        <path class="cls-2" d="M994.35,34.2c-1.5,0-2.77-.35-3.83-1.05-1.05-.7-1.85-1.71-2.4-3.02s-.83-2.91-.83-4.78c0-1.48.18-2.8.54-3.95s.87-2.12,1.54-2.93c.67-.8,1.49-1.41,2.46-1.82.98-.42,2.07-.62,3.29-.62.72,0,1.44.1,2.17.3.73.2,1.42.5,2.05.9.33.17.56.4.69.71s.16.62.11.94c-.05.32-.17.6-.38.84-.2.24-.45.4-.76.48-.31.07-.66.02-1.06-.16-.52-.28-1.01-.48-1.49-.6-.47-.12-.94-.17-1.39-.17-.88,0-1.63.2-2.25.6-.62.4-1.08,1-1.39,1.8-.31.8-.46,1.79-.46,2.98v1.62h-.35c.15-.8.43-1.48.84-2.04.41-.56.93-.99,1.56-1.29.63-.3,1.33-.45,2.1-.45,1,0,1.89.25,2.66.74.78.49,1.39,1.17,1.84,2.02s.67,1.84.67,2.94c0,1.17-.25,2.2-.75,3.11-.5.91-1.2,1.62-2.09,2.14s-1.93.77-3.11.77ZM994.15,31.17c.52,0,.97-.12,1.36-.35.39-.23.69-.57.9-1,.21-.43.31-.93.31-1.5s-.1-1.06-.31-1.49c-.21-.43-.51-.76-.9-1-.39-.24-.85-.36-1.36-.36s-.97.12-1.36.36-.7.57-.91,1c-.22.42-.33.92-.33,1.49s.11,1.07.33,1.5c.22.43.52.77.91,1,.39.23.85.35,1.36.35Z"/>
      </g>
    </g>
  </g>
</svg>