<svg width="238" height="102" viewBox="0 0 238 102" fill="none" xmlns="http://www.w3.org/2000/svg">
<path d="M152.75 6.12378V6.17107C151.366 6.27037 150.077 6.56829 148.929 7.06481C147.545 7.66064 146.397 8.50236 145.395 9.5427C144.392 10.583 143.675 11.822 143.103 13.2122C142.577 14.6025 142.291 16.0873 142.291 17.6242V73.7881C142.291 73.7881 142.291 73.7975 142.291 73.8023V73.9394C142.264 74.0623 142.25 74.1664 142.246 74.2846C142.246 74.3177 142.246 74.3508 142.246 74.3886V90.353C142.246 90.4571 142.246 90.5611 142.241 90.6604C142.214 92.2256 141.787 93.5639 140.911 94.765C139.832 96.2498 138.08 96.5998 136.392 96.5998H11.262C9.31091 96.5998 7.83623 96.0039 6.93327 94.765C6.92874 94.7555 6.9242 94.7508 6.91966 94.7413C6.88336 94.6988 6.8516 94.6562 6.8153 94.6137C5.9078 93.422 5.43137 91.9845 5.43137 90.3483V87.1753H5.48128V52.6125C5.48128 50.9764 5.95771 49.5861 6.86521 48.3472C7.77271 47.1555 9.25193 46.5124 11.2076 46.5124V46.4131H15.0281C15.0281 46.4462 15.0372 46.4793 15.0418 46.5124H15.1234C15.1597 47.0988 15.3594 47.5906 15.6679 47.9783C16.2034 48.5789 17.0201 48.9004 17.8958 48.891C18.7716 48.8815 19.6246 48.891 20.4867 48.891C22.1157 48.8862 23.182 47.6615 23.1956 45.997C23.2047 44.862 23.1956 43.7224 23.1956 42.5875V41.3533C23.1956 40.3271 22.76 39.5138 22.0658 39.0267C21.6302 38.743 21.0993 38.5822 20.5094 38.5728C19.6201 38.5633 18.7262 38.5728 17.8368 38.5728C16.3259 38.5728 15.2187 39.5516 15.1234 41.1499H10.89C9.31999 41.1972 7.94059 41.4951 6.65649 42.091C5.27709 42.6868 4.08827 43.5285 3.1354 44.5689C2.13715 45.6092 1.37486 46.8481 0.853047 48.2384C0.331236 49.6287 0.0453748 51.1135 0.0453748 52.6504V73.9205C-3.38069e-09 74.1191 0 74.2657 0 74.4643V90.4287C0 91.9655 0.285861 93.4551 0.807672 94.8406C1.26142 96.0465 1.89667 97.1388 2.71341 98.0893C2.79509 98.1792 2.87676 98.2737 2.96298 98.3589C3.96576 99.3992 5.10921 100.241 6.49767 100.837C7.83623 101.433 9.36082 101.73 11.0306 101.778H136.633C138.352 101.778 139.877 101.48 141.265 100.837C145.295 99.106 147.804 94.7603 147.804 90.2774V87.1043H147.854V17.5816C147.854 15.9455 148.33 14.5552 149.238 13.3163C149.796 12.5739 150.563 12.0631 151.529 11.7841C152.065 11.6186 152.655 11.5193 153.303 11.4815H159.316C160.736 11.4815 161.884 10.2851 161.884 8.805C161.884 7.32489 160.736 6.12851 159.316 6.12851H152.772L152.75 6.12378Z" fill="url(#paint0_linear_113_87)"/>
<path d="M28.2731 77.462C29.108 78.2565 30.197 78.7483 31.3086 78.9421C33.2552 79.2826 35.3379 78.701 36.5041 76.9608C37.5976 75.3246 37.8834 73.1683 37.8834 71.2153V56.3905C38.7728 55.667 39.3717 54.6362 40.2611 53.9126L53.9643 74.4923C54.4861 75.3861 54.9625 76.0812 55.3437 76.6723C55.7248 77.2161 56.106 77.7127 56.5325 78.0626C56.9136 78.4078 57.3901 78.6584 57.9119 78.805C61.1335 79.7224 64.9631 78.091 65.3352 74.341C65.3352 73.8445 65.2898 73.2487 65.1446 72.6528C65.004 72.0097 64.7635 71.5132 64.4323 71.064C59.078 62.9919 53.5468 55.0428 48.0656 47.0654L62.1 31.9427C64.0965 29.9566 64.0239 26.566 62.0047 24.6556C60.1716 23.0053 57.1768 22.6743 55.1531 24.1591C54.3454 24.8022 53.5831 25.4973 52.8708 26.2918L37.9334 42.852H37.8381V5.41417C37.8381 4.16104 37.4252 2.96465 36.6266 2.02362C34.3442 -0.652873 29.5436 -0.832568 27.656 2.43976C27.2748 3.18218 26.989 4.02863 26.8483 5.01695C26.7076 5.95798 26.6577 6.99831 26.6577 8.09066V73.5419C26.6577 75.1307 27.1795 76.469 28.2776 77.4573L28.2731 77.462Z" fill="url(#paint1_linear_113_87)"/>
<path d="M83.0768 23.3791C81.0758 22.7029 78.7617 23.1805 77.2326 24.7079C76.139 25.7483 75.6127 27.0392 75.6127 28.4768V73.5989C75.6127 75.1878 76.1345 76.526 77.2326 77.5143C79.4287 79.6045 83.0133 79.5193 85.2276 77.5143C86.3211 76.474 86.8475 75.183 86.8475 73.5989V28.4768C86.8475 26.1124 85.1958 24.0932 83.0814 23.3791H83.0768Z" fill="url(#paint2_linear_113_87)"/>
<path d="M77.6635 12.6918C81.7427 15.3494 87.6097 12.427 87.7458 7.30096C87.7458 5.56549 87.1287 4.07593 85.8446 2.78969C83.78 0.798873 80.5266 0.321265 78.022 1.65951C76.0118 2.73295 74.7232 4.90819 74.755 7.26786C74.7867 9.4431 75.8939 11.5332 77.6635 12.6871V12.6918Z" fill="url(#paint3_linear_113_87)"/>
<path d="M100.546 56.4473C100.546 60.1168 100.782 63.3892 101.354 66.217C101.876 69.0921 102.878 71.4234 104.353 73.3054C105.782 75.1875 107.729 76.5778 110.206 77.5708C114.041 79.0604 118.492 79.2826 122.53 78.8618C124.626 78.6301 126.673 77.4715 127.308 75.2537C127.862 73.3243 127.562 70.662 125.72 69.5886C122.349 67.6214 118.356 69.6264 114.966 67.9524C114.063 67.4559 113.346 66.7135 112.824 65.7205C112.303 64.6801 111.967 63.3419 111.826 61.7057C111.686 60.0696 111.636 58.0362 111.636 55.6576V36.7188H119.209C120.148 36.7188 121.146 36.7992 122.067 36.5722C123.823 36.1419 125.307 34.7374 125.906 32.9688C126.541 31.0915 126.033 29.0818 124.622 27.7435C123.574 26.7032 122.34 26.2067 120.865 26.2067H111.636V12.7674C111.636 11.3299 111.114 10.091 110.161 8.9986C108.192 6.73824 103.881 6.76188 101.88 8.95131C100.882 9.99165 100.405 11.2306 100.405 12.7674H100.546V56.452V56.4473Z" fill="url(#paint4_linear_113_87)"/>
<path d="M173.241 23.3791C171.24 22.7029 168.926 23.1805 167.397 24.7079C166.303 25.7483 165.777 27.0392 165.777 28.4768V73.5989C165.777 75.1878 166.299 76.526 167.397 77.5143C169.593 79.6045 173.178 79.5193 175.392 77.5143C176.485 76.474 177.012 75.183 177.012 73.5989V28.4768C177.012 26.1124 175.36 24.0932 173.246 23.3791H173.241Z" fill="url(#paint5_linear_113_87)"/>
<path d="M167.828 13.6045C171.907 16.2621 177.774 13.3397 177.91 8.21368C177.91 6.47821 177.293 4.98865 176.009 3.70241C173.944 1.71159 170.691 1.23398 168.186 2.57223C166.176 3.64567 164.888 5.82091 164.919 8.18058C164.951 10.3558 166.058 12.4459 167.828 13.5998V13.6045Z" fill="url(#paint6_linear_113_87)"/>
<path d="M213.507 1.81567C199.999 1.81567 189.004 13.2688 189.004 27.3512V72.6814C189.004 76.0104 191.595 78.7058 194.785 78.7058C197.975 78.7058 200.566 76.0057 200.566 72.6814V45.0037H208.579V45.051C208.579 46.7392 209.759 47.8363 211.338 47.8505C212.422 47.8599 213.507 47.8505 214.591 47.8505H215.789C217.386 47.8505 218.453 46.6494 218.475 45.0132C218.484 44.0958 218.475 43.1737 218.475 42.2516C218.475 40.5634 217.295 39.4663 215.716 39.4521C214.632 39.4427 213.548 39.4521 212.463 39.4521H211.265C210.417 39.3528 209.759 39.5987 209.287 40.0905C208.815 40.5823 208.579 41.2207 208.579 42.053H200.566V27.3464C200.566 19.9128 206.369 13.8646 213.502 13.8646C220.635 13.8646 226.438 19.9128 226.438 27.3464V72.6766C226.438 76.0057 229.029 78.7011 232.219 78.7011C235.409 78.7011 238 76.001 238 72.6766V27.3512C238 13.2735 227.01 1.81567 213.498 1.81567H213.507Z" fill="url(#paint7_radial_113_87)"/>
<path d="M100.546 56.4473C100.546 60.1168 100.782 63.3891 101.354 66.2169C101.876 69.0921 102.878 71.4233 104.353 73.3054C105.782 75.1875 107.729 76.5777 110.206 77.5708C114.041 79.0603 118.492 79.2826 122.53 78.8617C124.626 78.63 126.673 77.4715 127.308 75.2537C127.862 73.3243 127.562 70.662 125.72 69.5886C122.349 67.6214 118.356 69.6264 114.966 67.9524C114.063 67.4559 113.346 66.7135 112.824 65.7204C112.303 64.6801 111.967 63.3418 111.826 61.7057C111.686 60.0695 111.636 36.714 111.636 36.714C112.666 36.714 121.146 36.7944 122.067 36.5674C123.823 36.1371 125.307 34.7327 125.906 32.9641C126.541 31.0868 126.033 29.077 124.622 27.7388C123.574 26.6984 122.34 26.2019 120.865 26.2019H111.636V12.7627C111.636 11.3251 111.114 10.0862 110.161 8.99384C108.192 6.73348 103.881 6.75712 101.88 8.94655C100.882 9.98689 100.405 11.2258 100.405 12.7627H100.546V56.4473Z" fill="url(#paint8_linear_113_87)"/>
<defs>
<linearGradient id="paint0_linear_113_87" x1="0.921109" y1="53.9697" x2="188.941" y2="53.9697" gradientUnits="userSpaceOnUse">
<stop stop-color="#CC7A99"/>
<stop offset="0.04" stop-color="#CC758A"/>
<stop offset="0.11" stop-color="#CC6962"/>
<stop offset="0.19" stop-color="#CC5829"/>
<stop offset="0.26" stop-color="#D4632A"/>
<stop offset="0.54" stop-color="#F38A30"/>
<stop offset="0.69" stop-color="#FF9933"/>
<stop offset="0.71" stop-color="#FC9F35"/>
<stop offset="0.78" stop-color="#F4B83F"/>
<stop offset="0.83" stop-color="#F2C243"/>
<stop offset="0.88" stop-color="#E7C43E"/>
<stop offset="0.97" stop-color="#CCCC33"/>
</linearGradient>
<linearGradient id="paint1_linear_113_87" x1="5.49943" y1="60.358" x2="77.3545" y2="26.3306" gradientUnits="userSpaceOnUse">
<stop offset="0.2" stop-color="#CC7A99"/>
<stop offset="0.27" stop-color="#CC758A"/>
<stop offset="0.42" stop-color="#CC6962"/>
<stop offset="0.6" stop-color="#CC5829"/>
</linearGradient>
<linearGradient id="paint2_linear_113_87" x1="53.1022" y1="86.0593" x2="102.381" y2="29.6775" gradientUnits="userSpaceOnUse">
<stop offset="0.12" stop-color="#CC5829"/>
<stop offset="0.23" stop-color="#D7662B"/>
<stop offset="0.45" stop-color="#F68D31"/>
<stop offset="0.5" stop-color="#FF9933"/>
<stop offset="0.93" stop-color="#F2C243"/>
</linearGradient>
<linearGradient id="paint3_linear_113_87" x1="64.9722" y1="18.6122" x2="86.1131" y2="4.95599" gradientUnits="userSpaceOnUse">
<stop stop-color="#FF9933"/>
<stop offset="0.4" stop-color="#FAA738"/>
<stop offset="0.92" stop-color="#F2C243"/>
</linearGradient>
<linearGradient id="paint4_linear_113_87" x1="100.401" y1="43.1783" x2="127.553" y2="43.1783" gradientUnits="userSpaceOnUse">
<stop stop-color="#FF9933"/>
<stop offset="0.39" stop-color="#FAA641"/>
<stop offset="1" stop-color="#F2C261"/>
</linearGradient>
<linearGradient id="paint5_linear_113_87" x1="146.955" y1="22.2395" x2="232.567" y2="115.406" gradientUnits="userSpaceOnUse">
<stop stop-color="#F2C243"/>
<stop offset="0.22" stop-color="#E3C53C"/>
<stop offset="0.48" stop-color="#CCCC33"/>
<stop offset="0.89" stop-color="#66CC66"/>
</linearGradient>
<linearGradient id="paint6_linear_113_87" x1="160.336" y1="1.007" x2="179.937" y2="12.8138" gradientUnits="userSpaceOnUse">
<stop stop-color="#F2C243"/>
<stop offset="0.46" stop-color="#E3C53C"/>
<stop offset="1" stop-color="#CCCC33"/>
</linearGradient>
<radialGradient id="paint7_radial_113_87" cx="0" cy="0" r="1" gradientTransform="matrix(41.7433 -26.6171 20.6876 35.2376 229.078 60.7939)" gradientUnits="userSpaceOnUse">
<stop stop-color="#66CC66"/>
<stop offset="0.17" stop-color="#6FCC61"/>
<stop offset="0.45" stop-color="#88CC54"/>
<stop offset="0.8" stop-color="#B2CC3F"/>
<stop offset="1" stop-color="#CCCC33"/>
</radialGradient>
<linearGradient id="paint8_linear_113_87" x1="84.6059" y1="70.3594" x2="135.729" y2="26.6965" gradientUnits="userSpaceOnUse">
<stop stop-color="#FF9933"/>
<stop offset="0.15" stop-color="#FC9F35"/>
<stop offset="0.36" stop-color="#F7B13C"/>
<stop offset="0.51" stop-color="#F2C243"/>
</linearGradient>
</defs>
</svg>
