<svg width="192" height="236" viewBox="0 0 192 236" fill="none" xmlns="http://www.w3.org/2000/svg">
<path d="M56.8232 105.885C47.2504 96.2978 47.2504 80.7015 56.8232 71.1199C57.8868 70.0546 59.6119 70.0546 60.6822 71.1199C61.7459 72.1852 61.7459 73.9129 60.6822 74.9849C53.2368 82.4418 53.2368 94.5694 60.6822 102.027C61.7459 103.092 61.7459 104.82 60.6822 105.892C60.1504 106.425 59.455 106.691 58.7526 106.691C58.0572 106.684 57.3551 106.418 56.8232 105.885ZM87.6828 102.02C86.6192 103.086 86.6192 104.813 87.6828 105.885C88.2147 106.418 88.9101 106.684 89.6124 106.684C90.3079 106.684 91.0102 106.418 91.542 105.885C101.115 96.2978 101.115 80.7015 91.542 71.1199C90.4784 70.0546 88.7533 70.0546 87.683 71.1199C86.6194 72.1852 86.6194 73.9129 87.683 74.9849C95.1284 82.435 95.1282 94.5628 87.6828 102.02ZM64.5416 98.1554C65.0734 98.688 65.7689 98.9543 66.4712 98.9543C67.1667 98.9543 67.8689 98.688 68.4008 98.1554C69.4644 97.0901 69.4644 95.3624 68.4008 94.2904C65.2099 91.0946 65.2099 85.8979 68.4008 82.7021C69.4644 81.6368 69.4644 79.9091 68.4008 78.8371C67.3371 77.7718 65.6121 77.7718 64.5418 78.8371C59.2235 84.1704 59.2234 92.8286 64.5416 98.1554ZM72.2462 90.4389C72.7644 90.9305 73.4462 91.231 74.1826 91.231C74.8917 91.231 75.6008 90.9305 76.119 90.4389C76.3645 90.1657 76.5554 89.8653 76.6917 89.5375C76.8281 89.2097 76.9099 88.8546 76.9099 88.4995C76.9099 88.1444 76.8281 87.7894 76.6917 87.4616C76.5554 87.1338 76.3645 86.8333 76.119 86.5602C75.0827 85.5496 73.2554 85.5496 72.2462 86.5602C72.0008 86.8334 71.8098 87.1338 71.6735 87.4616C71.5371 87.7894 71.4553 88.1444 71.4553 88.4995C71.4553 88.8546 71.5371 89.2097 71.6735 89.5375C71.8098 89.8653 72.0008 90.1657 72.2462 90.4389ZM79.9644 98.1554C80.4963 98.688 81.1917 98.9543 81.894 98.9543C82.5895 98.9543 83.2917 98.688 83.8236 98.1554C89.1419 92.8289 89.1419 84.1634 83.8236 78.8366C82.76 77.7713 81.0349 77.7713 79.9646 78.8366C78.901 79.9019 78.901 81.6296 79.9646 82.7016C83.1555 85.8974 83.1555 91.0941 79.9646 94.2899C78.901 95.362 78.9008 97.0902 79.9644 98.1554ZM66.0008 148.593H49.6372C48.1303 148.593 46.9099 147.371 46.9099 145.861V132.204C46.9099 130.695 48.1303 129.473 49.6372 129.473H66.0008C67.5076 129.473 68.7281 130.695 68.7281 132.204V145.861C68.7281 147.371 67.5076 148.593 66.0008 148.593ZM63.2735 134.936H52.3644V143.13H63.2735V134.936ZM147.82 66.6494H145.093C143.586 66.6494 142.365 67.8717 142.365 69.3809C142.365 70.89 143.586 72.1123 145.093 72.1123H147.82C149.327 72.1123 150.547 70.89 150.547 69.3809C150.547 67.8717 149.327 66.6494 147.82 66.6494ZM147.82 39.3346H120.547C119.04 39.3346 117.82 40.5569 117.82 42.066C117.82 43.5752 119.04 44.7975 120.547 44.7975H147.82C149.327 44.7975 150.547 43.5752 150.547 42.066C150.547 40.5569 149.327 39.3346 147.82 39.3346ZM147.82 52.992H120.547C119.04 52.992 117.82 54.2143 117.82 55.7235C117.82 57.2326 119.04 58.4549 120.547 58.4549H147.82C149.327 58.4549 150.547 57.2326 150.547 55.7235C150.547 54.2143 149.327 52.992 147.82 52.992ZM177.821 55.7235V77.5753C177.821 83.5982 172.925 88.5012 166.912 88.5012H115.093C110.579 88.5012 106.911 84.8273 106.911 80.3068V31.1401C106.911 26.6196 110.579 22.9457 115.093 22.9457H153.274C157.788 22.9457 161.456 26.6196 161.456 31.1401V47.529H169.638C174.152 47.529 177.821 51.2029 177.821 55.7235ZM157.523 83.0383C156.582 81.4267 156.002 79.5761 156.002 77.5753V31.141C156.002 29.6319 154.782 28.4095 153.275 28.4095H115.093C113.586 28.4095 112.366 29.6319 112.366 31.141V80.3077C112.366 81.8168 113.586 83.0392 115.093 83.0392L157.523 83.0383ZM172.366 55.7235C172.366 54.2143 171.146 52.992 169.639 52.992H161.457V77.5744C161.457 80.586 163.905 83.0374 166.911 83.0374C169.918 83.0374 172.366 80.586 172.366 77.5744V55.7235ZM88.9123 162.798C83.2192 167.072 77.2396 167.714 74.1851 167.714C67.0601 167.714 61.8986 164.634 59.4578 162.798C58.251 161.889 56.5464 162.135 55.6396 163.344C54.7396 164.553 54.9782 166.267 56.1851 167.168C59.1714 169.415 65.4782 173.177 74.1842 173.177C77.9205 173.177 85.2228 172.399 92.1833 167.168C93.3901 166.267 93.6356 164.553 92.7288 163.344C91.8288 162.142 90.1123 161.889 88.9123 162.798ZM101.458 132.205V145.862C101.458 147.371 100.237 148.594 98.7305 148.594H82.3669C80.8601 148.594 79.6396 147.371 79.6396 145.862V132.205C79.6396 130.696 80.8601 129.473 82.3669 129.473H98.7305C100.237 129.473 101.458 130.696 101.458 132.205ZM96.0032 134.936H85.0941V143.131H96.0032V134.936ZM134.185 66.6503H120.549C119.042 66.6503 117.821 67.8726 117.821 69.3817C117.821 70.8909 119.042 72.1132 120.549 72.1132H134.185C135.692 72.1132 136.912 70.8909 136.912 69.3817C136.912 67.8726 135.692 66.6503 134.185 66.6503ZM134.185 140.401V151.327C134.185 155.848 130.517 159.521 126.003 159.521H117.821V178.643C117.821 183.163 114.153 186.837 109.64 186.837H38.7305C34.2169 186.837 30.5487 183.163 30.5487 178.643V159.521H22.3669C17.8533 159.521 14.1851 155.848 14.1851 151.327V140.401C14.1851 135.881 17.8533 132.207 22.3669 132.207H30.5487V124.012C30.5487 119.492 34.2169 115.818 38.7305 115.818H71.4578V102.16C71.4578 100.651 72.6782 99.4289 74.1851 99.4289C75.6919 99.4289 76.9123 100.651 76.9123 102.16V115.818H109.64C114.153 115.818 117.821 119.492 117.821 124.012V132.207H126.003C130.517 132.207 134.185 135.881 134.185 140.401ZM30.5487 137.67H22.3669C20.8601 137.67 19.6396 138.892 19.6396 140.401V151.327C19.6396 152.836 20.8601 154.059 22.3669 154.059H30.5487V137.67ZM112.367 124.012C112.367 122.503 111.146 121.281 109.64 121.281H38.7305C37.2237 121.281 36.0032 122.503 36.0032 124.012V178.642C36.0032 180.151 37.2237 181.373 38.7305 181.373H109.64C111.146 181.373 112.367 180.151 112.367 178.642V124.012ZM128.731 140.401C128.731 138.892 127.51 137.67 126.003 137.67H117.821V154.059H126.003C127.51 154.059 128.731 152.836 128.731 151.327V140.401Z" fill="#F2C243"/>
</svg>
