<svg width="210" height="258" viewBox="0 0 210 258" fill="none" xmlns="http://www.w3.org/2000/svg">
<path d="M48.3231 170.888C48.3231 169.238 49.658 167.902 51.3061 167.902H75.1697C76.8178 167.902 78.1527 169.238 78.1527 170.888C78.1527 172.538 76.8178 173.874 75.1697 173.874H51.3061C49.658 173.874 48.3231 172.538 48.3231 170.888ZM102.255 46.6063C102.315 46.7854 102.404 46.9646 102.523 47.1139C102.613 47.2931 102.762 47.4424 102.881 47.5917C103.448 48.1292 104.224 48.4576 104.999 48.4576C105.178 48.4576 105.387 48.4278 105.596 48.3979C105.775 48.3681 105.954 48.3083 106.133 48.2188C106.312 48.159 106.491 48.0694 106.67 47.95L107.117 47.5917C107.654 47.0243 107.982 46.2479 107.982 45.4715C107.982 44.695 107.654 43.9187 107.117 43.3513L106.67 42.993C106.491 42.8735 106.312 42.7839 106.133 42.7242C105.954 42.6346 105.775 42.5749 105.596 42.5451C104.612 42.3659 103.568 42.6645 102.881 43.3513C102.344 43.9187 102.016 44.6951 102.016 45.4715C102.016 45.6805 102.046 45.8597 102.076 46.0687C102.106 46.2479 102.165 46.4271 102.255 46.6063ZM119.765 60.2528C118.602 61.4173 118.602 63.3061 119.765 64.478C120.347 65.0603 121.107 65.3515 121.875 65.3515C122.636 65.3515 123.404 65.0603 123.986 64.478C134.456 53.9967 134.456 36.9466 123.986 26.4718C122.823 25.3072 120.936 25.3072 119.765 26.4718C118.602 27.6364 118.602 29.5251 119.765 30.697C127.909 38.8416 127.908 52.1 119.765 60.2528ZM94.4542 56.0349C95.0359 56.6172 95.7966 56.9084 96.5647 56.9084C97.3254 56.9084 98.0935 56.6172 98.6752 56.0349C99.8386 54.8704 99.8386 52.9815 98.6752 51.8097C95.1852 48.316 95.1852 42.6348 98.6752 39.1411C99.8386 37.9765 99.8386 36.0877 98.6752 34.9158C97.5119 33.7512 95.6251 33.7512 94.4544 34.9158C88.6376 40.7388 88.6374 50.2116 94.4542 56.0349ZM111.323 56.0349C111.904 56.6172 112.665 56.9084 113.433 56.9084C114.194 56.9084 114.962 56.6172 115.544 56.0349C121.361 50.212 121.361 40.7386 115.544 34.9152C114.38 33.7506 112.494 33.7506 111.323 34.9152C110.16 36.0798 110.16 37.9686 111.323 39.1405C114.813 42.6342 114.813 48.3154 111.323 51.8091C110.16 52.9737 110.159 54.863 111.323 56.0349ZM88.1235 65.3516C88.8842 65.3516 89.6523 65.0605 90.234 64.4782C91.3974 63.3136 91.3974 61.4248 90.234 60.2529C82.0906 52.1008 82.0906 38.8427 90.234 30.6899C91.3974 29.5253 91.3974 27.6365 90.234 26.4646C89.0706 25.3 87.1838 25.3 86.0132 26.4646C75.543 36.9459 75.543 53.9961 86.0132 64.4709C86.5949 65.0606 87.3628 65.3516 88.1235 65.3516ZM158.693 176.861H143.778C142.13 176.861 140.795 178.197 140.795 179.847C140.795 181.497 142.13 182.833 143.778 182.833H158.693C160.341 182.833 161.676 181.497 161.676 179.847C161.676 178.197 160.341 176.861 158.693 176.861ZM158.693 167.903H134.829C133.181 167.903 131.846 169.239 131.846 170.889C131.846 172.539 133.181 173.875 134.829 173.875H158.693C160.341 173.875 161.676 172.539 161.676 170.889C161.676 169.239 160.341 167.903 158.693 167.903ZM173.608 164.917V185.82C173.608 190.762 169.596 194.779 164.659 194.779H161.676V200.751C161.676 201.871 161.05 202.894 160.058 203.409C159.625 203.633 159.155 203.737 158.693 203.737C158.082 203.737 157.477 203.55 156.963 203.185L145.21 194.779H128.864C123.927 194.779 119.915 190.762 119.915 185.82V164.917C119.915 159.975 123.927 155.958 128.864 155.958H143.778V147C143.778 145.35 142.443 144.014 140.795 144.014H69.2045C67.5564 144.014 66.2215 145.35 66.2215 147V155.958H81.1363C86.073 155.958 90.0852 159.975 90.0852 164.917V185.82C90.0852 190.762 86.073 194.779 81.1363 194.779H64.7897L53.037 203.185C52.5224 203.55 51.9184 203.737 51.3069 203.737C50.8445 203.737 50.3747 203.625 49.9422 203.409C48.9503 202.893 48.3239 201.871 48.3239 200.751V194.779H45.341C40.4042 194.779 36.3921 190.762 36.3921 185.82V164.917C36.3921 159.975 40.4042 155.958 45.341 155.958H60.2557V147C60.2557 142.058 64.2679 138.042 69.2046 138.042H102.018V126.097H81.1364C76.1997 126.097 72.1875 122.081 72.1875 117.139V105.194H69.2046C64.2679 105.194 60.2557 101.178 60.2557 96.2361V90.2639C60.2557 85.3219 64.2679 81.3055 69.2046 81.3055H72.7395C73.9774 77.8342 77.2587 75.3333 81.1364 75.3333H102.018V60.4028C102.018 58.7529 103.353 57.4167 105.001 57.4167C106.649 57.4167 107.984 58.7529 107.984 60.4028V75.3333H128.866C132.751 75.3333 136.032 77.8342 137.263 81.3055H140.797C145.734 81.3055 149.746 85.3219 149.746 90.2639V96.2361C149.746 101.178 145.734 105.194 140.797 105.194H137.814V117.139C137.814 122.081 133.802 126.097 128.866 126.097H107.984V138.042H140.797C145.734 138.042 149.746 142.058 149.746 147V155.958H164.661C169.598 155.958 173.61 159.982 173.61 164.917H173.608ZM137.812 99.2222H140.795C142.443 99.2222 143.778 97.8859 143.778 96.2361V90.2639C143.778 88.6141 142.443 87.2778 140.795 87.2778H137.812V99.2222ZM72.1874 87.2778H69.2044C67.5563 87.2778 66.2214 88.6141 66.2214 90.2639V96.2361C66.2214 97.8859 67.5563 99.2222 69.2044 99.2222H72.1874V87.2778ZM45.3417 161.93C43.6936 161.93 42.3588 163.266 42.3588 164.916V185.819C42.3588 187.469 43.6936 188.806 45.3417 188.806H51.3076C52.9557 188.806 54.2906 190.142 54.2906 191.792V194.949L62.106 189.365C62.6131 189.007 63.2172 188.813 63.8361 188.813L81.1373 188.805C82.7854 188.805 84.1202 187.469 84.1202 185.819V164.916C84.1202 163.266 82.7854 161.929 81.1373 161.929L45.3417 161.93ZM128.864 120.124C130.513 120.124 131.847 118.788 131.847 117.138V84.2897C131.847 82.6399 130.513 81.3036 128.864 81.3036H81.1372C79.4891 81.3036 78.1542 82.6399 78.1542 84.2897V117.138C78.1542 118.788 79.4891 120.124 81.1372 120.124H128.864ZM167.642 164.917C167.642 163.267 166.307 161.931 164.659 161.931H128.863C127.215 161.931 125.881 163.267 125.881 164.917V185.82C125.881 187.47 127.215 188.807 128.863 188.807H146.165C146.784 188.807 147.395 189.001 147.895 189.359L155.71 194.95V191.793C155.71 190.143 157.045 188.807 158.693 188.807H164.659C166.307 188.807 167.642 187.47 167.642 185.821L167.642 164.917ZM51.3057 182.833H66.2205C67.8686 182.833 69.2034 181.497 69.2034 179.847C69.2034 178.197 67.8686 176.861 66.2205 176.861H51.3057C49.6576 176.861 48.3228 178.197 48.3228 179.847C48.3228 181.497 49.6576 182.833 51.3057 182.833ZM99.033 93.25C99.033 91.6002 97.6981 90.2639 96.05 90.2639H90.0841C88.436 90.2639 87.1012 91.6002 87.1012 93.25C87.1012 94.8998 88.436 96.2361 90.0841 96.2361H96.05C97.6981 96.2361 99.033 94.8998 99.033 93.25ZM115.529 105.545C111.45 107.725 107.549 108.181 104.999 108.181C100.375 108.181 96.7213 106.747 94.4691 105.545C93.0224 104.769 91.2103 105.321 90.4346 106.777C89.6591 108.233 90.2109 110.039 91.6576 110.816C94.5138 112.339 99.1375 114.153 104.999 114.153C108.228 114.153 113.165 113.571 118.333 110.816C119.787 110.039 120.339 108.233 119.563 106.777C118.788 105.321 116.983 104.769 115.529 105.545ZM119.914 90.2639H113.948C112.3 90.2639 110.965 91.6002 110.965 93.25C110.965 94.8998 112.3 96.2361 113.948 96.2361H119.914C121.562 96.2361 122.897 94.8998 122.897 93.25C122.897 91.6002 121.562 90.2639 119.914 90.2639Z" fill="#F2C243"/>
</svg>
